<?xml version="1.0" encoding="utf-8"?>
<!-- Generator: Adobe Illustrator 16.0.0, SVG Export Plug-In . SVG Version: 6.00 Build 0)  -->
<!DOCTYPE svg PUBLIC "-//W3C//DTD SVG 1.1//EN" "http://www.w3.org/Graphics/SVG/1.1/DTD/svg11.dtd">
<svg version="1.1" id="Layer_1" xmlns="http://www.w3.org/2000/svg" xmlns:xlink="http://www.w3.org/1999/xlink" x="0px" y="0px"
	 width="420px" height="111px" viewBox="0 0 420 111" enable-background="new 0 0 420 111" xml:space="preserve">
<g>
	<g>
		<g>
			<g>
				<path fill="#45A588" d="M189.981,79.122c3.478,6.604,5.031,14.057,7.98,20.893c0.513,1.191,2.247,0.162,1.738-1.018
					c-2.951-6.84-4.497-14.274-7.979-20.893C191.116,76.956,189.378,77.974,189.981,79.122L189.981,79.122z"/>
			</g>
		</g>
		<g>
			<g>
				<g>
					<path fill="#45A588" d="M199.218,100.846c7.711-0.594,14.499-4.932,21.513-7.795c1.186-0.482,0.666-2.434-0.534-1.94
						c-6.813,2.776-13.499,7.144-20.979,7.722C197.932,98.932,197.922,100.945,199.218,100.846L199.218,100.846z"/>
				</g>
			</g>
			<g>
				<g>
					<path fill="#45A588" d="M221.704,91.091c-2.678-6.798-5.205-13.637-7.5-20.572c-0.406-1.227-2.352-0.7-1.942,0.534
						c2.294,6.937,4.824,13.774,7.499,20.571C220.23,92.819,222.179,92.301,221.704,91.091L221.704,91.091z"/>
				</g>
			</g>
			<g>
				<g>
					<path fill="#45A588" d="M212.626,69.369c-5.96,5.111-14.237,5.678-21.355,8.334c-1.205,0.45-0.685,2.396,0.534,1.943
						c7.515-2.803,15.952-3.455,22.245-8.856C215.038,69.946,213.606,68.528,212.626,69.369L212.626,69.369z"/>
				</g>
			</g>
			<g>
				<g>
					<path fill="#45A588" d="M214.226,70.393c1.526-1.96,3.273-3.73,4.798-5.689c0.79-1.009-0.626-2.446-1.424-1.424
						c-1.525,1.957-3.274,3.729-4.798,5.69C212.015,69.981,213.429,71.418,214.226,70.393L214.226,70.393z"/>
				</g>
			</g>
			<g>
				<g>
					<path fill="#45A588" d="M221.939,92.485c2.093-1.673,3.658-4.027,4.945-6.344c0.632-1.139-1.106-2.154-1.741-1.018
						c-1.214,2.187-2.656,4.357-4.625,5.937C219.501,91.873,220.936,93.289,221.939,92.485L221.939,92.485z"/>
				</g>
			</g>
			<g>
				<g>
					<path fill="#45A588" d="M217.469,64.581c2.67,6.785,5.292,13.584,7.292,20.601c0.356,1.249,2.3,0.716,1.94-0.532
						c-1.995-7.02-4.617-13.818-7.289-20.602C218.94,62.853,216.992,63.371,217.469,64.581L217.469,64.581z"/>
				</g>
			</g>
			<g>
				<g>
					<path fill="#45A588" d="M217.511,62.719c-6.214,2.448-12.43,4.9-18.644,7.35c-1.194,0.473-0.675,2.42,0.534,1.942
						c6.216-2.45,12.43-4.897,18.645-7.35C219.241,64.19,218.72,62.244,217.511,62.719L217.511,62.719z"/>
				</g>
			</g>
			<g>
				<g>
					<path fill="#45A588" d="M191.563,79.325c2.501-2.52,5.206-4.828,7.708-7.349c0.916-0.923-0.507-2.347-1.424-1.425
						c-2.501,2.52-5.206,4.827-7.709,7.349C189.224,78.823,190.647,80.249,191.563,79.325L191.563,79.325z"/>
				</g>
			</g>
		</g>
		<g>
			<path fill="#D5E4E9" d="M207.891,93.401c-2.921-1.508-10.205-3.959-10.529-8.154c-0.438-4.483,5.659-5.89,7.824-2.085
				c-0.088-5.286,6.237-6.117,7.59-0.996C213.848,85.732,210.715,91.288,207.891,93.401"/>
			<g>
				<path fill="#46AA8D" d="M208.399,92.531c-2.751-1.369-5.67-2.426-8.102-4.353c-1.49-1.182-2.496-2.95-1.572-4.826
					c1.165-2.369,4.457-1.377,5.589,0.316c0.558,0.833,1.835,0.517,1.877-0.509c0.196-4.793,5.428-3.931,5.79,0.422
					c0.28,3.338-2.355,7.102-4.804,9.102c-1.005,0.823,0.427,2.239,1.426,1.426c4.057-3.316,7.573-10.32,3.65-14.947
					c-3.291-3.887-7.916,0.141-8.073,3.998c0.624-0.168,1.25-0.339,1.874-0.51c-2.331-3.489-8.963-3.777-9.632,1.283
					c-0.786,5.957,6.803,8.264,10.962,10.333C208.541,94.847,209.561,93.109,208.399,92.531L208.399,92.531z"/>
			</g>
		</g>
	</g>
	<g>
		<path fill="#FFFFFF" d="M268.329,30.526c-9.749,3.08-1.539,16.933,7.696,11.802C286.802,36.683,277.565,26.934,268.329,30.526"/>
		<g>
			<path fill="#45A588" d="M268.062,29.554c-4.073,1.417-6.331,5.209-4.444,9.357c1.872,4.118,6.253,6.294,10.648,5.227
				c4.256-1.036,9.36-5.675,7.058-10.41C278.967,28.887,272.711,27.888,268.062,29.554c-1.213,0.436-0.692,2.381,0.535,1.942
				c3.54-1.269,7.612-0.915,10.234,2.008c3.216,3.583-1.453,7.349-4.603,8.537c-6.666,2.518-13.574-7.783-5.632-10.544
				C269.816,31.072,269.292,29.127,268.062,29.554L268.062,29.554z"/>
		</g>
	</g>
	<g>
		<path fill="#FFFFFF" d="M287.375,24.448c-0.723-2.647,2.405-5.776,4.571-4.091C296.038,23.483,289.54,28.538,287.375,24.448"/>
		<g>
			<path fill="#45A588" d="M288.346,24.18c-0.304-1.29,0.557-2.786,1.809-3.218c1.129-0.391,2.153,0.892,2.102,1.929
				c-0.042,0.819-0.896,1.595-1.599,1.886c-1.013,0.419-1.879,0.11-2.413-0.837c-0.638-1.131-2.379-0.117-1.738,1.017
				c0.991,1.76,2.949,2.482,4.831,1.704c1.67-0.691,3.066-2.333,2.928-4.222c-0.166-2.247-2.46-4-4.646-3.417
				c-2.356,0.629-3.744,3.422-3.215,5.694C286.698,25.979,288.64,25.442,288.346,24.18L288.346,24.18z"/>
		</g>
	</g>
	<g>
		<path fill="#FFFFFF" d="M127.918,57.54c3.188-4.363,9.397,3.523,4.363,5.873C128.589,65.091,124.562,60.561,127.918,57.54"/>
		<g>
			<path fill="#45A588" d="M128.63,58.252c1.841-2.377,4.673,0.36,4.531,2.685c-0.104,1.695-2.406,2.031-3.643,1.617
				C127.506,61.882,127.22,59.614,128.63,58.252c0.936-0.903-0.49-2.325-1.424-1.425c-2.313,2.233-1.818,5.503,0.817,7.218
				c2.269,1.479,5.848,0.643,6.887-1.946c1.705-4.256-4.481-9.434-7.704-5.271C126.421,57.842,127.836,59.278,128.63,58.252
				L128.63,58.252z"/>
		</g>
	</g>
	<g>
		<g>
			<path fill="#FFFFFF" d="M197.01,35.672c-0.452,2.753-1.485,4.234-0.301,7.676c3.363,9.768,7.713,12.108-2.728,25.304
				c-4.711,5.954-0.674,10.854-2.898,11.852c-1.333,0.598-2.338-1.363-2.338-1.363c-1.016-1.703-1.642-2.017-1.727-3.888
				c-0.252-5.602,7.007-12.01,9.245-16.721c3.4-7.638-6.739-13.116-3.518-22.903"/>
			<g>
				<path fill="#44A98D" d="M196.039,35.405c-1.395,6.672,1.018,10.617,3.03,16.896c2.923,9.126-8.155,14.771-8.509,23.412
					c0.016-0.38,0.25,4.792-0.945,2.919c-2.384-3.744-0.71-7.506,1.408-10.771c2.276-3.511,5.313-6.45,6.696-10.468
					c0.799-2.315-0.115-5.019-0.953-7.149c-1.972-5.016-4.492-8.67-3.049-14.346c0.319-1.259-1.621-1.792-1.941-0.535
					c-0.911,3.583-0.796,6.868,0.695,10.309c1.111,2.564,2.451,5.02,3.255,7.704c1.203,4.012-1.975,7.429-4.162,10.34
					c-2.263,3.017-6.264,7.595-5.515,11.806c0.294,1.657,1.688,5.745,3.837,5.902c1.463,0.104,2.977-0.253,2.925-2.134
					c-0.108-3.944-0.321-6.51,2.041-10.132c1.874-2.874,3.97-5.37,5.458-8.495c1.373-2.885,1.457-5.855,0.702-8.898
					c-1.444-5.806-4.372-9.405-3.031-15.828C198.245,34.672,196.304,34.134,196.039,35.405L196.039,35.405z"/>
			</g>
		</g>
		<g>
			<path fill="#FFFFFF" d="M200.919,40.241c-4.027,9.683,11.967,14.795,6.514,24.83c-2.684,4.436-6.93,7.445-2.589,12.793
				c2.485,2.407,7.984,2.703,8.076,9.117c5.766,4.995,4.155-4.278,0.608-7.934c-4.794-4.102-8.37-2.589-4.976-8.712
				c2.86-5.238,6.917-9.855,3.046-16.251c-3.821-6.323-8.611-6.172-8.588-13.729"/>
			<g>
				<path fill="#44A98D" d="M199.949,39.974c-1.238,3.729-0.389,6.712,1.655,9.983c4.073,6.516,8.339,10.026,2.812,17.725
					c-2.729,3.802-3.543,8.271,0.543,11.563c3.208,2.583,6.389,2.281,6.954,7.735c0.123,1.192,1.734,1.795,2.656,2.233
					c1.73,0.826,3.263-0.762,3.162-2.481c-0.235-4.043-2.07-7.316-5.239-9.733c-2.079-1.585-5.313-1.636-3.07-6.156
					c0.868-1.75,1.979-3.411,2.924-5.12c1.338-2.42,1.856-4.879,1.767-7.611c-0.245-7.582-9.602-10.112-10.096-17.758
					c-0.085-1.289-2.097-1.297-2.014,0c0.251,3.888,1.384,6.345,4.203,9.052c3.441,3.307,6.63,6.504,5.686,12.092
					c-0.587,3.491-3.537,6.971-5.089,10.104c-0.947,1.906-0.726,3.511,0.848,4.849c2.351,1.998,4.577,2.16,6.487,5.118
					c1.189,1.839,1.109,8.227-0.429,3.393c-0.973-3.059-2.755-4.629-5.532-6.151c-9.171-5.009,0.592-11.064,1.25-16.362
					c1.071-8.627-10.386-13.345-7.534-21.94C202.301,39.273,200.354,38.747,199.949,39.974L199.949,39.974z"/>
			</g>
		</g>
		<g>
			<path fill="#FFFFFF" d="M205.995,40.635c0.039,12.25,17.057,7.876,20.334,11.976c5.938,7.221-6.621,13.206,0.655,19.476
				c-0.679,6.143-6.233-1.538-5.523-6.314c0.922-6.236,6.242-8.534-1.845-10.692c-5.597-1.26-8.196,0.434-13.935-4.779
				c-2.674-2.43-2.859-4.618-4.094-8.091"/>
			<g>
				<path fill="#44A98D" d="M204.988,40.635c0.415,6.827,5.185,9.254,11.384,10.32c4.45,0.766,11.392,0.341,10.474,7.151
					c-0.475,3.504-3.063,6.181-3.2,9.824c-0.052,1.369,0.706,2.553,1.436,3.62c0.465,0.507,0.072,0.503-1.18-0.015
					c-1.415-2.056-1.679-4.497-1.19-6.868c0.521-2.526,2.986-5.03,2.048-7.716c-0.779-2.234-4.854-2.944-6.742-3.179
					c-8.215-1.026-12.722-3.625-15.462-11.832c-0.41-1.226-2.354-0.699-1.941,0.535c1.817,5.442,3.733,9.012,9.037,11.786
					c4.37,2.284,15.503-0.338,12.059,7.263c-1.764,3.887-1.511,7.301,0.448,11.025c0.774,1.477,3.108,3.976,4.842,2.242
					c0.641-0.64,1.193-2.102,0.953-2.977c-0.264-0.957-2.384-3.664-2.162-3.118c-0.665-1.641,0.581-4.062,1.229-5.486
					c1.575-3.444,2.603-6.317,0.997-9.917c-3.891-8.728-20.223,0.469-21.018-12.663C206.923,39.345,204.909,39.337,204.988,40.635
					L204.988,40.635z"/>
			</g>
		</g>
		<g>
			<path fill="#FFFFFF" d="M213.751,38.236c-2.963-10.349,0.397-15.206-3.589-20.641c-5.054-6.684-16.965-7.519-23.997-5.405
				c-17.533,5.464-2.107,22.048-1.248,33.168c2.225-0.173,4.538-1.498,6.407-1.583c3.022,0.009,4.174,1.61,7.377,0.82
				c2.848-0.703,3.334-4.053,6.628-4.486C208.622,39.674,216.103,43.767,213.751,38.236z"/>
			<g>
				<path fill="#44A98D" d="M214.724,37.969c-2.017-7.999,0.663-17.284-6.041-23.323c-5.483-4.941-14.613-5.119-21.411-3.787
					c-19.587,3.835-4.707,23.307-3.36,34.5c0.082,0.684,0.577,1.099,1.274,0.971c3.151-0.58,5.474-1.946,8.852-1.062
					c1.686,0.442,2.886,0.565,4.666,0.335c3.92-0.503,4.857-5.114,9.704-4.156C211.884,42.135,216.334,43.025,214.724,37.969
					c-0.394-1.232-2.339-0.706-1.943,0.534c0.774,2.431-6.665,0.316-7.719,0.637c-1.172,0.354-2.094,0.548-2.992,1.458
					c-2.824,2.857-4.934,3.397-8.854,2.373c-1.373-0.36-7.446,1.025-7.47,0.909c-0.822-4.201-2.575-8.093-4.184-12.038
					c-1.585-3.887-3.247-8.104-2.487-12.363c1.2-6.724,11.192-7.412,16.445-7.263c7.264,0.208,15.006,3.781,15.756,11.741
					c0.471,4.983,0.268,9.629,1.505,14.548C213.098,39.763,215.04,39.229,214.724,37.969z"/>
			</g>
		</g>
	</g>
</g>
</svg>
