<?xml version="1.0" encoding="utf-8"?>
<!-- Generator: Adobe Illustrator 16.0.0, SVG Export Plug-In . SVG Version: 6.00 Build 0)  -->
<!DOCTYPE svg PUBLIC "-//W3C//DTD SVG 1.1//EN" "http://www.w3.org/Graphics/SVG/1.1/DTD/svg11.dtd">
<svg version="1.1" id="Layer_1" xmlns="http://www.w3.org/2000/svg" xmlns:xlink="http://www.w3.org/1999/xlink" x="0px" y="0px"
	 width="500px" height="132.143px" viewBox="0 0 500 132.143" enable-background="new 0 0 500 132.143" xml:space="preserve">
<g display="none">
	<g display="inline">
		<path fill="#FFFFFF" d="M243.975,96.49c1.935-1.488,4.467-3.872,6.551-4.913l0.149,0.298c0.148,3.669,0.148,10.003,0.148,13.847
			c-1.936,2.233-5.359,4.17-7.891,5.807"/>
		<g>
			<path fill="#46AA8D" d="M244.505,97.021c1.036-0.824,5.934-3.947,5.447-4.916c0.724,1.442,0.089,5.009,0.103,6.628
				c0.016,1.769,0.787,5.888-0.553,7.282c-1.924,2.004-4.618,3.384-6.948,4.866c-0.813,0.518-0.062,1.816,0.758,1.295
				c2.164-1.377,4.322-2.728,6.349-4.305c1.955-1.522,1.914-1.927,1.912-4.255c-0.001-2.857-0.017-5.714-0.062-8.57
				c-0.02-1.223,0.227-2.723-0.338-3.848c-0.185-0.368-0.688-0.461-1.026-0.269c-2.444,1.391-4.51,3.286-6.702,5.03
				C242.688,96.562,243.756,97.616,244.505,97.021L244.505,97.021z"/>
		</g>
	</g>
	<g display="inline">
		<path fill="#FFFFFF" d="M226.256,95.747c0.032,4.083-0.148,8.882-0.148,12.803c0,1.055-0.299,0.895,0.446,1.639
			c0.892,0.895,4.318,1.192,5.658,1.34c1.787,0.148,3.572,0,5.359,0c1.191,0,4.318,0.597,5.361,0
			c1.042-0.743,0.744-3.424,0.744-4.913c0-3.425,0.446-6.849,0.298-10.125c-2.979-0.446-5.095-0.117-8.073-0.267
			S229.629,95.544,226.256,95.747"/>
		<g>
			<path fill="#46AA8D" d="M225.506,95.747c0.009,2.752-0.044,5.503-0.096,8.254c-0.028,1.493-0.732,4.711,0.049,6.045
				c1.519,2.592,6.95,2.301,9.433,2.288c1.918-0.01,8.19,1.427,9.134-1.034c0.578-1.509,0.432-3.096,0.401-4.685
				c-0.064-3.378,0.38-6.743,0.298-10.125c-0.011-0.446-0.336-0.7-0.75-0.75c-2.69-0.323-5.371-0.183-8.073-0.267
				c-3.232-0.101-6.4-0.59-9.646-0.477c-0.965,0.033-0.968,1.534,0,1.5c2.856-0.1,5.671,0.173,8.515,0.405
				c3.071,0.25,6.138-0.03,9.204,0.338c-0.25-0.25-0.5-0.5-0.75-0.75c0.094,3.88-0.367,7.74-0.263,11.62
				c0.066,2.476-0.776,3.017-3.108,2.855c-1.675-0.115-3.276-0.176-4.962-0.132c-1.853,0.048-3.652-0.126-5.478-0.419
				c-2.129-0.342-2.561-0.903-2.553-2.955c0.016-3.905,0.157-7.808,0.145-11.713C227.003,94.78,225.503,94.779,225.506,95.747
				L225.506,95.747z"/>
		</g>
	</g>
	<g display="inline">
		<g>
			<path fill="#46AA8D" d="M226.638,96.277c1.664-1.562,2.973-3.549,4.911-4.798c0.81-0.521,0.059-1.82-0.758-1.295
				c-2.061,1.328-3.447,3.374-5.214,5.032C224.87,95.88,225.934,96.938,226.638,96.277L226.638,96.277z"/>
		</g>
	</g>
	<g display="inline">
		<g>
			<path fill="#46AA8D" d="M231.317,91.434c6.438-0.189,12.801,0.443,19.208,0.894c0.966,0.067,0.959-1.433,0-1.5
				c-6.407-0.45-12.771-1.083-19.208-0.894C230.353,89.962,230.35,91.462,231.317,91.434L231.317,91.434z"/>
		</g>
	</g>
	<g display="inline">
		<g>
			<path fill="#46AA8D" d="M246.854,93.236c-5.893-0.872-11.82-1.058-17.77-1.069c-0.968-0.002-0.967,1.498,0,1.5
				c5.811,0.012,11.614,0.164,17.371,1.017C247.401,94.823,247.809,93.378,246.854,93.236L246.854,93.236z"/>
		</g>
	</g>
	<g display="inline">
		<path fill="#FFFFFF" d="M236.083,92.173c-0.597,0.595-1.34,1.19-1.787,1.787c1.936,0,6.997,1.488,7.444-1.342
			C239.953,92.322,237.869,92.022,236.083,92.173"/>
		<g>
			<path fill="#46AA8D" d="M235.553,91.643c-0.61,0.585-1.242,1.138-1.787,1.787c-0.413,0.492-0.161,1.265,0.53,1.28
				c2.443,0.057,7.38,1.646,8.168-1.893c0.081-0.365-0.106-0.854-0.524-0.923c-1.94-0.315-3.886-0.592-5.856-0.472
				c-0.961,0.059-0.967,1.559,0,1.5c1.839-0.112,3.646,0.123,5.458,0.419c-0.175-0.308-0.35-0.615-0.524-0.923
				c-0.501,2.253-5.139,0.828-6.721,0.791c0.177,0.427,0.354,0.854,0.53,1.28c0.545-0.649,1.177-1.201,1.787-1.787
				C237.313,92.032,236.25,90.973,235.553,91.643L235.553,91.643z"/>
		</g>
	</g>
	<g display="inline">
		<g>
			<path fill="#46AA8D" d="M232.946,106.677c0.328,1.024,0.449,2.093,0.811,3.106c0.169,0.472,0.648,0.68,1.103,0.448
				c1.884-0.962,4.217-0.197,6.099-1.116c1.191-0.581,1.073-1.983,0.864-3.107c-0.243-1.305-0.658-2.476-2.13-2.597
				c-0.709-0.058-1.506,0.259-2.17,0.451c-1.448,0.422-3.016,0.976-4.527,1.055c-0.962,0.051-0.967,1.551,0,1.5
				c1.529-0.08,2.921-0.617,4.391-1c0.651-0.169,1.313-0.345,1.975-0.481c0.731-0.15,0.802,0.48,0.936,1.045
				c0.043,0.182,0.356,1.553,0.094,1.747c-0.393,0.292-1.209,0.263-1.65,0.322c-1.623,0.219-3.144,0.124-4.638,0.887
				c0.367,0.149,0.735,0.299,1.103,0.448c-0.362-1.014-0.483-2.082-0.811-3.106C234.1,105.36,232.651,105.753,232.946,106.677
				L232.946,106.677z"/>
		</g>
	</g>
</g>
<g display="none">
	<g display="inline">
		<path fill="#FFFFFF" d="M257.944,100.297c0,3.442-0.203,7.493,0.607,10.734c5.873,0.202,11.747-0.203,17.62-0.203
			c2.228,0,4.861,0.405,7.089,0c3.646-0.607,2.633-2.024,2.229-5.469c-0.203-3.239,0.404-4.657-2.431-5.468
			c-2.431-0.811-6.279-0.202-8.912-0.202c-4.861,0-11.139-1.014-15.798,0.405"/>
		<g>
			<path fill="#46AA8D" d="M257.194,100.297c-0.021,3.68-0.095,7.312,0.634,10.934c0.066,0.33,0.407,0.543,0.724,0.551
				c4.571,0.108,9.135-0.041,13.705-0.154c3.567-0.089,7.717,0.73,11.203-0.075c4.374-1.013,2.872-3.813,2.729-7.473
				c-0.159-4.084-1.831-5.029-5.937-5.35c-3.551-0.277-7.2,0.222-10.782,0.029c-3.837-0.206-7.571-0.313-11.321,0.612
				c-0.938,0.231-0.541,1.679,0.398,1.446c5.135-1.267,10.383-0.472,15.599-0.378c2.967,0.054,5.756-0.487,8.713,0.175
				c2.333,0.523,1.835,4.436,2.076,6.144c0.574,4.049-4.224,3.524-7.029,3.377c-3.181-0.167-6.385,0.008-9.565,0.095
				c-2.405,0.065-9.061,1.539-9.514-2.142c-0.316-2.563-0.148-5.215-0.133-7.791C258.7,99.329,257.2,99.33,257.194,100.297
				L257.194,100.297z"/>
		</g>
	</g>
	<g display="inline">
		<path fill="#FFFFFF" d="M258.349,99.892c2.229-2.025,5.267-3.646,8.102-4.457"/>
		<g>
			<path fill="#46AA8D" d="M258.879,100.421c2.251-1.979,4.905-3.398,7.771-4.263c0.924-0.278,0.53-1.726-0.398-1.446
				c-3.118,0.939-5.985,2.497-8.433,4.648C257.091,100.001,258.155,101.058,258.879,100.421L258.879,100.421z"/>
		</g>
	</g>
	<g display="inline">
		<path fill="#FFFFFF" d="M266.45,95.233c9.114,1.215,19.039,0.404,28.152,0.404"/>
		<g>
			<path fill="#46AA8D" d="M266.45,95.983c9.361,1.107,18.756,0.455,28.152,0.404c0.967-0.006,0.968-1.506,0-1.5
				c-9.396,0.051-18.791,0.703-28.152-0.404C265.491,94.37,265.502,95.871,266.45,95.983L266.45,95.983z"/>
		</g>
	</g>
	<g display="inline">
		<path fill="#FFFFFF" d="M294.603,95.435c-2.025,2.432-7.696,3.85-10.734,4.66"/>
		<g>
			<path fill="#46AA8D" d="M294.072,94.905c-2.52,2.748-6.942,3.545-10.403,4.466c-0.935,0.248-0.537,1.695,0.398,1.446
				c3.71-0.986,8.356-1.896,11.065-4.852C295.785,95.254,294.728,94.19,294.072,94.905L294.072,94.905z"/>
		</g>
	</g>
	<g display="inline">
		<path fill="#FFFFFF" d="M295.818,98.271c-2.634,2.026-6.279,3.646-9.722,4.051"/>
		<g>
			<path fill="#46AA8D" d="M295.439,97.624c-2.822,2.098-6.051,3.494-9.542,3.975c-0.955,0.131-0.547,1.576,0.398,1.446
				c3.601-0.495,6.99-1.962,9.901-4.126C296.964,98.349,296.217,97.046,295.439,97.624L295.439,97.624z"/>
		</g>
	</g>
	<g display="inline">
		<path fill="#FFFFFF" d="M257.539,102.728c8.304-2.431,18.229-0.203,26.937-0.203"/>
		<g>
			<path fill="#46AA8D" d="M257.738,103.451c8.799-2.251,17.816-0.31,26.737-0.177c0.968,0.015,0.967-1.486,0-1.5
				c-9.066-0.135-18.196-2.057-27.136,0.23C256.403,102.243,256.801,103.69,257.738,103.451L257.738,103.451z"/>
		</g>
	</g>
	<g display="inline">
		<path fill="#FFFFFF" d="M258.146,105.158c8.709-0.406,17.418,0.809,26.127,0.809"/>
		<g>
			<path fill="#46AA8D" d="M258.146,105.908c8.726-0.296,17.407,0.727,26.127,0.809c0.968,0.009,0.967-1.491,0-1.5
				c-8.72-0.082-17.401-1.104-26.127-0.809C257.182,104.44,257.179,105.941,258.146,105.908L258.146,105.908z"/>
		</g>
	</g>
	<g display="inline">
		<path fill="#FFFFFF" d="M256.121,107.993c9.317-0.608,18.431,0.404,27.747,0.404"/>
		<g>
			<path fill="#46AA8D" d="M256.121,108.743c9.257-0.502,18.49,0.341,27.747,0.404c0.968,0.007,0.967-1.493,0-1.5
				c-9.257-0.063-18.49-0.906-27.747-0.404C255.159,107.295,255.154,108.796,256.121,108.743L256.121,108.743z"/>
		</g>
	</g>
	<g display="inline">
		<path fill="#FFFFFF" d="M296.83,100.904c-4.456,2.835-9.519,3.038-14.379,5.063"/>
		<g>
			<path fill="#46AA8D" d="M296.451,100.257c-4.388,2.613-9.504,3.14-14.199,4.986c-0.89,0.351-0.503,1.802,0.398,1.447
				c4.82-1.896,10.054-2.455,14.559-5.139C298.039,101.058,297.284,99.761,296.451,100.257L296.451,100.257z"/>
		</g>
	</g>
	<g display="inline">
		<path fill="#FFFFFF" d="M294.603,96.65c-0.202,3.849,1.216,7.494,0.81,11.343"/>
		<g>
			<path fill="#46AA8D" d="M293.853,96.65c-0.092,3.817,1.091,7.521,0.81,11.343c-0.071,0.966,1.43,0.959,1.5,0
				c0.281-3.824-0.901-7.525-0.81-11.343C295.376,95.683,293.876,95.685,293.853,96.65L293.853,96.65z"/>
		</g>
	</g>
	<g display="inline">
		<path fill="#FFFFFF" d="M285.894,110.019c2.634-1.014,5.873-2.229,8.507-2.634"/>
		<g>
			<path fill="#46AA8D" d="M286.093,110.742c2.771-1.064,5.57-2.134,8.507-2.634c0.952-0.162,0.547-1.607-0.398-1.447
				c-2.938,0.5-5.736,1.57-8.507,2.634C284.801,109.639,285.188,111.089,286.093,110.742L286.093,110.742z"/>
		</g>
	</g>
	<g display="inline">
		<path fill="#FFFFFF" d="M296.628,103.942c-4.254,0.81-8.507,2.431-12.354,4.253"/>
		<g>
			<path fill="#46AA8D" d="M296.429,103.219c-4.367,0.887-8.505,2.449-12.534,4.329c-0.876,0.408-0.113,1.701,0.758,1.295
				c3.914-1.827,7.935-3.317,12.175-4.177C297.775,104.474,297.373,103.027,296.429,103.219L296.429,103.219z"/>
		</g>
	</g>
</g>
<g>
	<polygon fill="#45A588" points="269.844,128.765 267.136,117.608 272.121,123.188 272.873,116.492 273.827,122.628 277.811,117.45 
		275.104,128.765 	"/>
	<g>
		<path fill="#FFFFFF" d="M201.318,87.286c-11.733-15.318-27.083-5.508-33.527,7.429l0.374-0.121
			c-1.357-2.83-3.461-5.413-6.491-5.812c-0.828,4.969,1.759,13.96,4.426,18.233c1.719-1.045,2.788-2.812,3.201-5.296l0.322-1.515
			c10.406,6.382,28.756,3.081,31.797-10.135L201.318,87.286z"/>
		<g>
			<path fill="#45A588" d="M201.848,86.756c-4.872-5.993-11.177-9.409-18.919-7.261c-7.125,1.978-12.509,8.573-15.786,14.841
				c-0.289,0.553,0.187,1.315,0.847,1.103c0.125-0.041,0.25-0.081,0.374-0.121c0.474-0.153,0.681-0.661,0.448-1.103
				c-1.593-3.024-3.512-5.331-6.939-6.156c-0.514-0.123-0.893,0.235-0.949,0.724c-0.727,6.27,1.397,13.22,4.528,18.612
				c0.188,0.323,0.699,0.514,1.026,0.269c1.633-1.223,2.476-2.445,3.219-4.34c0.266-0.678,0.403-1.765,0.564-2.526
				c-0.224,1.053,1.26,1.288,2.085,1.595c4.519,1.681,9.134,2.014,13.889,1.31c8.362-1.239,16.157-7.543,15.832-16.415
				c-0.035-0.964-1.536-0.968-1.5,0c0.556,15.16-20.167,18.235-30.567,12.271c-0.401-0.23-1-0.033-1.102,0.448
				c-0.187,0.881-2.032,6.837-2.683,5.716c-1.269-2.185-2.028-4.672-2.735-7.082c-0.732-2.496-1.121-5.081-1.214-7.676
				c-0.125-3.52,4.983,3.139,5.325,3.027c0.282,0.367,0.564,0.735,0.847,1.103c2.959-5.659,7.092-10.476,12.863-13.368
				c7.495-3.756,14.663,0.157,19.486,6.091C201.398,88.567,202.453,87.499,201.848,86.756z"/>
		</g>
	</g>
	<g>
		<polyline fill="#FFFFFF" points="274.144,127.635 274.144,52.232 280.852,52.232 280.852,127.635 		"/>
		<g>
			<path fill="#45A588" d="M274.894,127.635c0-24.09,0-48.18,0-72.271c0-1.021,0-2.042,0-3.063c0,0.49-1.218,0.682-0.165,0.682
				c0.771,0,1.542,0,2.313,0c0.862,0,1.724,0,2.586,0c1.626,0,0.475,0.172,0.475-0.682c0,3.539,0,7.078,0,10.617
				c0,15.348,0,30.696,0,46.044c0,6.225,0,12.448,0,18.673c0,0.968,1.5,0.968,1.5,0c0-25.134,0-50.269,0-75.402
				c0-0.409-0.341-0.75-0.75-0.75c-2.236,0-4.472,0-6.708,0c-0.409,0-0.75,0.341-0.75,0.75c0,25.134,0,50.269,0,75.402
				C273.394,128.603,274.894,128.603,274.894,127.635L274.894,127.635z"/>
		</g>
	</g>
	<g>
		<g>
			<g>
				<path fill="#45A588" d="M303.806,16.538c14.276,0.505,14.448,23.67,14.002,33.896c-0.044,1,1.124-0.288,0.353-0.288
					c-0.895,0-1.789,0-2.683,0c-3.418,0-6.836,0-10.254,0c-5.764,0-11.527,0-17.291,0c-0.968,0-0.968,1.5,0,1.5
					c10.2,0,20.4,0,30.601,0c0.428,0,0.726-0.342,0.75-0.75c0.683-11.2,0.058-35.31-15.478-35.858
					C302.838,15.004,302.841,16.504,303.806,16.538L303.806,16.538z"/>
			</g>
		</g>
	</g>
	<g>
		<path fill="#D4E3E8" d="M289.334,51.367c0.234,5.654,4.005,14.375,6.833,18.851c3.533,5.655,9.425,7.539,15.787,7.068
			c6.125-0.469,10.604-4.004,10.604-10.366c0-5.421-2.141-11.075-4.024-16.023"/>
		<g>
			<path fill="#45A588" d="M288.584,51.367c0.938,11.823,7.479,25.676,20.474,26.714c5.213,0.416,10.45-1.365,13.117-6.027
				c3.534-6.18-0.705-15.518-2.918-21.356c-0.34-0.896-1.79-0.508-1.447,0.398c1.955,5.156,3.787,10.254,3.998,15.824
				c0.276,7.303-6.688,9.751-12.75,9.661c-11.945-0.177-18.159-14.934-18.974-25.214C290.008,50.409,288.508,50.402,288.584,51.367
				L288.584,51.367z"/>
		</g>
	</g>
	<g>
		
			<polygon fill="#FFFFFF" stroke="#46AA8D" stroke-width="0.3" stroke-linecap="round" stroke-linejoin="round" stroke-miterlimit="10" points="
			301.631,34.063 304.735,52.932 338.482,47.638 335.031,28.42 		"/>
		<g>
			<path fill="#FFFFFF" d="M301.631,34.063c0.949,5.974,2.14,12.529,3.095,18.505"/>
			<g>
				<path fill="#46AA8D" d="M301.197,34.183c0.991,6.176,2.098,12.331,3.095,18.506c0.092,0.571,0.959,0.328,0.867-0.24
					c-0.996-6.174-2.103-12.329-3.095-18.504C301.973,33.372,301.105,33.615,301.197,34.183L301.197,34.183z"/>
			</g>
		</g>
		<g>
			<path fill="#FFFFFF" d="M304.784,52.928c11.204-1.32,20.432-3.495,33.698-5.29"/>
			<g>
				<path fill="#46AA8D" d="M304.784,53.378c11.33-1.387,22.513-3.74,33.817-5.307c0.573-0.079,0.328-0.946-0.238-0.867
					c-11.226,1.555-22.329,3.896-33.579,5.273C304.216,52.547,304.209,53.448,304.784,53.378L304.784,53.378z"/>
			</g>
		</g>
		<g>
			<path fill="#FFFFFF" d="M338.34,46.827c-0.902-6.355-2.481-12.042-3.046-17.89"/>
			<g>
				<path fill="#46AA8D" d="M338.773,46.708c-0.893-5.945-2.38-11.789-3.029-17.771c-0.063-0.57-0.963-0.576-0.9,0
					c0.658,6.063,2.157,11.984,3.063,18.009C337.992,47.52,338.859,47.275,338.773,46.708L338.773,46.708z"/>
			</g>
		</g>
		<g>
			<path fill="#FFFFFF" d="M335.031,28.42c-5.977-0.041-11.237,1.608-17.231,2.563c-5.251,0.842-11.159,1.042-16.266,2.786"/>
			<g>
				<path fill="#46AA8D" d="M335.031,27.97c-5.304,0.108-10.382,1.284-15.573,2.274c-6.03,1.149-12.144,1.272-18.044,3.091
					c-0.553,0.17-0.316,1.039,0.24,0.867c4.799-1.479,9.729-1.82,14.672-2.551c6.255-0.924,12.35-2.652,18.705-2.781
					C335.61,28.858,335.612,27.958,335.031,27.97L335.031,27.97z"/>
			</g>
		</g>
		<g>
			<g>
				<path fill="#46AA8D" d="M323.145,44.344c2.967-0.602,5.966-1.013,8.953-1.502c0.571-0.094,0.328-0.961-0.24-0.867
					c-2.986,0.489-5.985,0.899-8.953,1.502C322.336,43.592,322.577,44.459,323.145,44.344L323.145,44.344z"/>
			</g>
		</g>
		<g>
			<g>
				<path fill="#46AA8D" d="M322.602,41.746c2.987-0.243,5.971-0.537,8.914-1.122c0.568-0.112,0.327-0.98-0.24-0.867
					c-2.864,0.568-5.766,0.853-8.674,1.089C322.027,40.893,322.022,41.793,322.602,41.746L322.602,41.746z"/>
			</g>
		</g>
		<g>
			<path fill="#D2E2E7" d="M325.79,32.337c0.542,1.454,0.32,3.263,0.953,4.573c1.525-0.194,3.52-0.433,4.972-0.977
				c-0.149-1.294-0.323-3.077-0.702-4.322C329.35,31.717,327.456,32.246,325.79,32.337"/>
			<g>
				<path fill="#46AA8D" d="M325.356,32.456c0.504,1.534,0.363,3.182,0.998,4.682c0.055,0.127,0.251,0.24,0.389,0.223
					c1.716-0.219,3.451-0.417,5.091-0.993c0.175-0.061,0.354-0.229,0.331-0.434c-0.17-1.489-0.312-2.994-0.719-4.442
					c-0.051-0.181-0.235-0.346-0.434-0.33c-1.755,0.143-3.467,0.598-5.223,0.726c-0.575,0.042-0.579,0.942,0,0.9
					c1.757-0.129,3.468-0.583,5.223-0.726c-0.145-0.11-0.289-0.221-0.434-0.33c0.386,1.371,0.524,2.79,0.686,4.202
					c0.11-0.145,0.221-0.289,0.331-0.434c-1.459,0.512-2.991,0.722-4.519,0.918c-0.182,0.023-0.704-3.748-0.854-4.2
					C326.044,31.669,325.175,31.903,325.356,32.456L325.356,32.456z"/>
			</g>
		</g>
		<g>
			<g>
				<path fill="#46AA8D" d="M323.811,46.955c1.184-0.287,2.411-0.148,3.584-0.507c0.554-0.169,0.317-1.037-0.238-0.867
					c-1.169,0.356-2.401,0.219-3.586,0.507C323.007,46.225,323.246,47.093,323.811,46.955L323.811,46.955z"/>
			</g>
		</g>
	</g>
	<g>
		
			<polygon fill="#FFFFFF" stroke="#46AA8D" stroke-width="0.3" stroke-linecap="round" stroke-linejoin="round" stroke-miterlimit="10" points="
			301.284,30.661 284.521,39.863 300.73,69.933 317.71,60.288 		"/>
		<g>
			<path fill="#FFFFFF" d="M301.284,30.661c-5.315,2.883-11.104,6.184-16.421,9.072"/>
			<g>
				<path fill="#46AA8D" d="M301.057,30.272c-5.492,2.989-10.93,6.079-16.421,9.072c-0.509,0.278-0.055,1.055,0.455,0.777
					c5.49-2.993,10.928-6.083,16.421-9.072C302.021,30.772,301.567,29.995,301.057,30.272L301.057,30.272z"/>
			</g>
		</g>
		<g>
			<path fill="#FFFFFF" d="M284.54,39.909c4.97,10.128,10.096,18.106,16.19,30.023"/>
			<g>
				<path fill="#46AA8D" d="M284.151,40.137c5.057,10.188,10.979,19.914,16.19,30.023c0.266,0.516,1.043,0.061,0.777-0.455
					c-5.212-10.108-11.134-19.834-16.19-30.023C284.671,39.162,283.895,39.618,284.151,40.137L284.151,40.137z"/>
			</g>
		</g>
		<g>
			<path fill="#FFFFFF" d="M301.451,69.526c5.694-2.962,10.53-6.34,15.863-8.818"/>
			<g>
				<path fill="#46AA8D" d="M301.679,69.915c5.35-2.831,10.396-6.208,15.863-8.818c0.523-0.25,0.066-1.026-0.455-0.777
					c-5.467,2.611-10.513,5.987-15.863,8.818C300.711,69.409,301.166,70.187,301.679,69.915L301.679,69.915z"/>
			</g>
		</g>
		<g>
			<path fill="#FFFFFF" d="M317.71,60.288c-1.821-5.272-5.434-10.402-8.145-15.399c-2.536-4.668-4.691-10.179-8.031-14.413"/>
			<g>
				<path fill="#46AA8D" d="M318.144,60.169c-1.882-4.97-4.698-9.424-7.352-14.004c-3.059-5.279-5.216-10.985-8.869-15.917
					c-0.342-0.46-1.123-0.013-0.777,0.455c2.982,4.024,5.033,8.536,7.28,12.989c2.854,5.653,6.594,10.758,8.851,16.715
					C317.479,60.945,318.35,60.712,318.144,60.169L318.144,60.169z"/>
			</g>
		</g>
		<g>
			<path fill="#FFFFFF" d="M316.554,60.08c-1.221-0.904-6.412-2.883-7.753-3.619c-3.127-1.536-6.222-3.497-9.196-5.322"/>
			<g>
				<path fill="#46AA8D" d="M316.781,59.691c-2.106-1.37-4.604-2.181-6.89-3.199c-3.52-1.569-6.786-3.729-10.06-5.742
					c-0.496-0.305-0.948,0.474-0.455,0.777c3.287,2.021,6.559,4.106,10.061,5.742c2.277,1.063,4.772,1.823,6.889,3.199
					C316.814,60.786,317.266,60.007,316.781,59.691L316.781,59.691z"/>
			</g>
		</g>
		<g>
			<path fill="#FFFFFF" d="M299.604,51.139c0.093-3.285-0.033-6.978,0.267-10.271c0.175-3.325,1.306-6.442,1.478-9.766"/>
			<g>
				<path fill="#46AA8D" d="M300.055,51.139c0.067-3.427,0.018-6.85,0.267-10.271c0.239-3.294,1.183-6.477,1.478-9.766
					c0.052-0.578-0.849-0.573-0.9,0c-0.295,3.292-1.18,6.476-1.478,9.766c-0.309,3.411-0.199,6.85-0.267,10.271
					C299.143,51.72,300.043,51.719,300.055,51.139L300.055,51.139z"/>
			</g>
		</g>
		<g>
			<path fill="#FFFFFF" d="M303.55,54.367c-0.442,2.848-0.701,4.283-1.268,6.891c-0.385,1.979-0.875,5.58-1.138,7.599"/>
			<g>
				<path fill="#46AA8D" d="M303.116,54.247c-0.768,4.884-1.777,9.704-2.422,14.609c-0.075,0.574,0.826,0.567,0.9,0
					c0.634-4.826,1.634-9.565,2.389-14.369C304.073,53.919,303.206,53.676,303.116,54.247L303.116,54.247z"/>
			</g>
		</g>
		<g>
			<path fill="#FFFFFF" d="M299.112,45.038c-2.147-0.297-4.549-1.281-6.506-2.201c-2.041-0.88-5.218-1.524-7.186-2.648"/>
			<g>
				<path fill="#46AA8D" d="M299.232,44.604c-2.326-0.405-4.329-1.33-6.506-2.201c-2.338-0.936-4.834-1.439-7.078-2.604
					c-0.515-0.267-0.97,0.51-0.455,0.777c1.89,0.979,3.938,1.527,5.951,2.188c2.676,0.878,5.032,2.216,7.848,2.706
					C299.561,45.571,299.803,44.704,299.232,44.604L299.232,44.604z"/>
			</g>
		</g>
	</g>
	<g>
		
			<polygon fill="#FFFFFF" stroke="#46AA8D" stroke-width="0.3" stroke-linecap="round" stroke-linejoin="round" stroke-miterlimit="10" points="
			288.996,18.118 290.446,37.187 324.526,34.858 322.763,15.409 		"/>
		<g>
			<path fill="#FFFFFF" d="M288.996,18.118c0.43,6.034,1.043,12.669,1.473,18.705"/>
			<g>
				<path fill="#46AA8D" d="M288.546,18.118c0.454,6.238,1.019,12.467,1.473,18.705c0.042,0.575,0.942,0.579,0.9,0
					c-0.454-6.238-1.019-12.467-1.473-18.705C289.404,17.543,288.504,17.539,288.546,18.118L288.546,18.118z"/>
			</g>
		</g>
		<g>
			<path fill="#FFFFFF" d="M290.495,37.187c11.279-0.337,20.66-1.702,34.031-2.328"/>
			<g>
				<path fill="#46AA8D" d="M290.495,37.637c11.368-0.391,22.673-1.76,34.031-2.328c0.577-0.029,0.58-0.93,0-0.9
					c-11.358,0.568-22.663,1.938-34.031,2.328C289.916,36.757,289.914,37.656,290.495,37.637L290.495,37.637z"/>
			</g>
		</g>
		<g>
			<path fill="#FFFFFF" d="M324.456,34.035c-0.343-6.406-1.421-12.212-1.472-18.088"/>
			<g>
				<path fill="#46AA8D" d="M324.906,34.035c-0.373-6.041-1.347-12.031-1.472-18.088c-0.012-0.579-0.912-0.581-0.9,0
					c0.125,6.057,1.1,12.047,1.472,18.088C324.042,34.611,324.941,34.615,324.906,34.035L324.906,34.035z"/>
			</g>
		</g>
		<g>
			<path fill="#FFFFFF" d="M322.763,15.409c-5.552-0.521-11.715,0.651-17.387,1.054c-5.305,0.38-11.205,0.063-16.443,1.354"/>
			<g>
				<path fill="#46AA8D" d="M322.763,14.959c-5.837-0.375-11.584,0.575-17.387,1.054c-5.556,0.458-11.079,0.192-16.563,1.371
					c-0.566,0.121-0.326,0.989,0.24,0.867c5.387-1.157,10.854-1.014,16.323-1.338c5.829-0.346,11.523-1.431,17.387-1.054
					C323.343,15.896,323.339,14.996,322.763,14.959L322.763,14.959z"/>
			</g>
		</g>
		<g>
			<path fill="#FFFFFF" d="M322.097,16.378c-1.328,0.738-5.274,4.649-6.497,5.563c-2.692,2.211-5.761,4.221-8.653,6.173"/>
			<g>
				<path fill="#46AA8D" d="M321.869,15.989c-2.018,1.278-3.712,3.104-5.479,4.694c-2.96,2.665-6.375,4.823-9.671,7.042
					c-0.479,0.322-0.028,1.103,0.455,0.777c3.084-2.077,6.132-4.17,9.046-6.482c2.094-1.662,3.836-3.816,6.104-5.254
					C322.813,16.457,322.361,15.678,321.869,15.989L321.869,15.989z"/>
			</g>
		</g>
		<g>
			<path fill="#FFFFFF" d="M306.946,28.114c-2.949-1.443-6.366-2.854-9.238-4.485c-2.956-1.536-5.328-3.853-8.285-5.388"/>
			<g>
				<path fill="#46AA8D" d="M307.174,27.726c-3.088-1.484-6.233-2.836-9.238-4.485c-2.898-1.591-5.398-3.777-8.285-5.388
					c-0.508-0.283-0.962,0.494-0.455,0.777c2.888,1.61,5.398,3.776,8.285,5.388c2.992,1.67,6.153,3.002,9.238,4.485
					C307.239,28.753,307.696,27.978,307.174,27.726L307.174,27.726z"/>
			</g>
		</g>
		<g>
			<path fill="#FFFFFF" d="M311.519,25.858c2.408,1.579,3.614,2.41,5.749,4.005c1.645,1.166,4.724,3.103,6.451,4.172"/>
			<g>
				<path fill="#46AA8D" d="M311.291,26.247c4.097,2.695,8.03,5.589,12.2,8.177c0.495,0.307,0.946-0.472,0.455-0.777
					c-4.171-2.588-8.104-5.481-12.2-8.177C311.259,25.149,310.809,25.93,311.291,26.247L311.291,26.247z"/>
			</g>
		</g>
		<g>
			<path fill="#FFFFFF" d="M301.187,26.042c-1.154,1.83-3.045,3.61-4.689,5.012c-1.643,1.498-3.547,4.12-5.381,5.447"/>
			<g>
				<path fill="#46AA8D" d="M300.798,25.814c-1.397,2.082-3.241,3.607-5.035,5.317c-1.716,1.637-3.08,3.586-4.965,5.051
					c-0.458,0.356,0.185,0.988,0.637,0.637c1.874-1.457,3.313-3.363,4.965-5.051c1.791-1.83,3.73-3.347,5.176-5.499
					C301.899,25.786,301.119,25.336,300.798,25.814L300.798,25.814z"/>
			</g>
		</g>
	</g>
	<g>
		
			<polygon fill="#FFFFFF" stroke="#46AA8D" stroke-width="0.3" stroke-linecap="round" stroke-linejoin="round" stroke-miterlimit="10" points="
			283.569,27.749 276.886,45.665 308.801,57.842 315.356,39.448 		"/>
		<g>
			<path fill="#FFFFFF" d="M283.569,27.749c-2.145,5.657-4.369,11.937-6.509,17.597"/>
			<g>
				<path fill="#46AA8D" d="M283.136,27.63c-2.208,5.851-4.307,11.743-6.509,17.596c-0.205,0.545,0.665,0.777,0.867,0.24
					c2.203-5.854,4.301-11.746,6.509-17.598C284.209,27.324,283.338,27.092,283.136,27.63L283.136,27.63z"/>
			</g>
		</g>
		<g>
			<path fill="#FFFFFF" d="M276.93,45.687c10.381,4.421,19.47,7.118,31.871,12.155"/>
			<g>
				<path fill="#46AA8D" d="M276.811,46.12c10.484,4.41,21.32,7.909,31.871,12.155c0.538,0.217,0.771-0.653,0.238-0.867
					c-10.55-4.246-21.386-7.746-31.871-12.155C276.515,45.027,276.283,45.899,276.811,46.12L276.811,46.12z"/>
			</g>
		</g>
		<g>
			<path fill="#FFFFFF" d="M309.084,57.069c2.374-5.965,3.829-11.684,6.245-17.042"/>
			<g>
				<path fill="#46AA8D" d="M309.518,57.188c2.182-5.604,3.787-11.42,6.2-16.934c0.23-0.526-0.545-0.985-0.777-0.455
					c-2.444,5.587-4.08,11.473-6.29,17.15C308.439,57.491,309.31,57.724,309.518,57.188L309.518,57.188z"/>
			</g>
		</g>
		<g>
			<path fill="#FFFFFF" d="M315.356,39.448c-4.821-2.801-10.911-4.321-16.227-6.337c-4.975-1.88-10.201-4.641-15.497-5.666"/>
			<g>
				<path fill="#46AA8D" d="M315.584,39.06c-4.247-2.315-8.804-3.774-13.371-5.321c-6.221-2.107-12.027-5.258-18.461-6.727
					c-0.564-0.129-0.805,0.738-0.238,0.867c5.407,1.235,10.358,3.646,15.496,5.666c5.397,2.123,10.993,3.496,16.119,6.292
					C315.639,40.115,316.093,39.338,315.584,39.06L315.584,39.06z"/>
			</g>
		</g>
		<g>
			<g>
				<path fill="#46AA8D" d="M297.123,47.359c2.874,0.953,5.681,2.088,8.516,3.146c0.545,0.203,0.778-0.667,0.24-0.867
					c-2.836-1.058-5.643-2.193-8.516-3.146C296.811,46.309,296.575,47.178,297.123,47.359L297.123,47.359z"/>
			</g>
		</g>
		<g>
			<g>
				<path fill="#46AA8D" d="M297.944,44.837c2.712,1.272,5.445,2.501,8.29,3.45c0.552,0.185,0.786-0.685,0.238-0.867
					c-2.771-0.926-5.432-2.121-8.073-3.36C297.877,43.814,297.42,44.591,297.944,44.837L297.944,44.837z"/>
			</g>
		</g>
		<g>
			<path fill="#D2E2E7" d="M305.393,38.258c-0.253,1.528-1.347,2.99-1.445,4.441c1.418,0.586,3.271,1.375,4.798,1.619
				c0.515-1.194,1.25-2.828,1.541-4.096C308.789,39.485,306.884,39.006,305.393,38.258"/>
			<g>
				<path fill="#46AA8D" d="M304.959,38.138c-0.331,1.582-1.265,2.944-1.462,4.562c-0.025,0.213,0.16,0.363,0.331,0.434
					c1.562,0.647,3.127,1.31,4.797,1.619c0.182,0.034,0.425-0.014,0.509-0.206c0.595-1.375,1.217-2.747,1.586-4.203
					c0.047-0.183-0.023-0.423-0.206-0.509c-1.594-0.75-3.306-1.204-4.894-1.965c-0.521-0.249-0.978,0.526-0.455,0.777
					c1.59,0.761,3.301,1.215,4.894,1.965c-0.068-0.17-0.138-0.339-0.206-0.509c-0.351,1.383-0.932,2.684-1.496,3.988
					c0.17-0.068,0.339-0.138,0.509-0.206c-1.671-0.31-3.236-0.973-4.799-1.619c0.11,0.145,0.221,0.289,0.331,0.434
					c0.186-1.52,1.116-2.828,1.429-4.321C305.945,37.812,305.077,37.57,304.959,38.138L304.959,38.138z"/>
			</g>
		</g>
		<g>
			<g>
				<path fill="#46AA8D" d="M296.4,49.957c1.172,0.336,2.167,1.073,3.363,1.343c0.565,0.128,0.806-0.74,0.24-0.867
					c-1.193-0.269-2.192-1.008-3.363-1.343C296.081,48.93,295.844,49.798,296.4,49.957L296.4,49.957z"/>
			</g>
		</g>
	</g>
	<g>
		<path fill="#D2E2E7" d="M241.63,50.896c0,0-1.414-35.108,15.55-35.108h47.126c-16.967,0-15.553,35.108-15.553,35.108H241.63z"/>
		<g>
			<path fill="#45A588" d="M242.38,50.896c-0.458-12.196,0.804-34.358,16.88-34.358c15.015,0,30.03,0,45.046,0c0-0.5,0-1,0-1.5
				c-9.021,0.318-12.769,9.127-14.576,16.768c-1.038,4.39-1.469,8.939-1.676,13.437c-0.065,1.429-0.085,2.859-0.077,4.289
				c0.009,1.891,0.104,0.615,0.531,0.615c-15.626,0-31.252,0-46.878,0c-0.967,0-0.967,1.5,0,1.5c15.708,0,31.416,0,47.124,0
				c0.397,0,0.766-0.341,0.75-0.75c-0.392-10.438,0.484-33.853,14.803-34.358c0.964-0.034,0.97-1.5,0-1.5
				c-15.627,0-31.254,0-46.881,0c-15.709,0-16.966,24.652-16.545,35.858C240.917,51.86,242.417,51.864,242.38,50.896z"/>
		</g>
	</g>
	<g>
		<path fill="#FFFFFF" d="M246.156,50.896c0-0.002-1.412-35.108,15.55-35.108h3.382c-16.965,0-15.551,35.108-15.551,35.108H246.156z
			"/>
		<g>
			<path fill="#45A588" d="M246.906,50.896c-0.222-5.938,0.308-11.985,1.479-17.802c0.933-4.632,2.496-9.377,5.615-13.01
				c2.969-3.458,6.901-3.547,11.088-3.547c0-0.5,0-1,0-1.5c-9.712,0.343-13.316,10.446-14.949,18.551
				c-0.856,4.253-1.21,8.616-1.347,12.945c-0.041,1.299-0.045,2.601-0.019,3.9c0.019,0.95-0.063-0.288,0.513-0.288
				c-1.043,0-2.087,0-3.13,0c-0.967,0-0.967,1.5,0,1.5c1.127,0,2.254,0,3.381,0c0.397,0,0.765-0.341,0.75-0.75
				c-0.392-10.438,0.484-33.853,14.801-34.358c0.964-0.034,0.97-1.5,0-1.5c-3.795,0-7.1,0.003-10.311,2.304
				c-3.542,2.538-5.406,6.948-6.705,10.948c-2.311,7.114-2.945,15.15-2.667,22.606C245.442,51.86,246.942,51.864,246.906,50.896z"/>
		</g>
	</g>
	<g>
		<path fill="#FFFFFF" d="M280.849,50.896c0-0.002-1.413-35.108,15.551-35.108h3.383c-16.967,0-15.554,35.108-15.554,35.108H280.849
			z"/>
		<g>
			<path fill="#45A588" d="M281.599,50.896c-0.222-5.938,0.308-11.985,1.479-17.802c0.934-4.632,2.496-9.377,5.616-13.01
				c2.969-3.459,6.902-3.547,11.089-3.547c0-0.5,0-1,0-1.5c-9.712,0.343-13.318,10.446-14.95,18.551
				c-0.857,4.253-1.211,8.616-1.348,12.945c-0.041,1.299-0.046,2.601-0.02,3.9c0.02,0.95-0.063-0.288,0.514-0.288
				c-1.044,0-2.087,0-3.13,0c-0.968,0-0.968,1.5,0,1.5c1.127,0,2.253,0,3.38,0c0.397,0,0.766-0.341,0.75-0.75
				c-0.392-10.439,0.485-33.853,14.804-34.358c0.964-0.034,0.97-1.5,0-1.5c-3.795,0-7.101,0.003-10.312,2.304
				c-3.542,2.538-5.406,6.948-6.706,10.948c-2.311,7.114-2.944,15.15-2.666,22.606C280.135,51.86,281.635,51.864,281.599,50.896z"/>
		</g>
	</g>
	<g>
		
			<rect x="263.117" y="3.378" fill="#45A588" stroke="#45A588" stroke-width="0.5" stroke-miterlimit="10" width="18.141" height="8.953"/>
		
			<rect x="276.388" y="12.331" fill="#45A588" stroke="#45A588" stroke-width="0.5" stroke-miterlimit="10" width="4.87" height="8.834"/>
		<path fill="#45A588" stroke="#45A588" stroke-width="0.5" stroke-miterlimit="10" d="M283.299,22.386
			c0,1.213-2.319,2.201-5.183,2.201s-5.185-0.988-5.185-2.201s2.321-2.199,5.185-2.199S283.299,21.173,283.299,22.386z"/>
	</g>
	<polygon fill="#45A588" points="279.79,128.765 275.934,112.88 283.033,120.822 284.104,111.293 285.464,120.026 291.136,112.653 
		287.278,128.765 	"/>
</g>
</svg>
