<?xml version="1.0" encoding="utf-8"?>
<!-- Generator: Adobe Illustrator 16.0.0, SVG Export Plug-In . SVG Version: 6.00 Build 0)  -->
<!DOCTYPE svg PUBLIC "-//W3C//DTD SVG 1.1//EN" "http://www.w3.org/Graphics/SVG/1.1/DTD/svg11.dtd">
<svg version="1.1" xmlns="http://www.w3.org/2000/svg" xmlns:xlink="http://www.w3.org/1999/xlink" x="0px" y="0px"
	 width="829.275px" height="500px" viewBox="0 0 829.275 500" enable-background="new 0 0 829.275 500" xml:space="preserve">
<g id="Layer_1">
	<g>
		<path fill="#FFFFFF" d="M499.358,203.248l-5.045,7.88l2.515,2.671l-4.847,36.623l8.392,21.384c0,0-3.66,21.296-17.965,30.995
			s-21.216,11.964-21.216,11.964l6.246-46.232l-78.138-34.752l-14.218-2.811l-17.249-24.853v-7.985l144.188,0.83L499.358,203.248z"
			/>
		<g>
			<path fill="#FFFFFF" d="M488.377,249.42c0,0,13.849,8.553,11.632,21.781"/>
			<g>
				<path fill="#45A98C" d="M487.62,250.715c6.954,4.371,12.002,12.112,10.889,20.486c-0.254,1.913,2.749,1.889,3,0
					c1.249-9.399-4.602-18.191-12.375-23.077C487.491,247.092,485.986,249.688,487.62,250.715L487.62,250.715z"/>
			</g>
		</g>
		<g>
			<path fill="#FFFFFF" d="M578.192,307.367c3-19-15.5-31.402-32.5-32.402c-16-0.5-30.655,12.035-44.155-2.965h-1.288
				c1.064-11-10.807-22.483-10.807-22.483c6.417,2.637,24.25-1.101,24.25-1.101c-1,18,30,12.976,40.5,13.976
				c20.5,2,38,24.487,25.5,43.987"/>
			<g>
				<path fill="#45A98C" d="M579.692,307.367c2.255-17.211-11.655-29.317-27.201-33.042c-8.702-2.085-17.002,0.077-25.492,2.06
					c-5.008,1.17-9.983,1.893-15.038,0.621c-3.152-0.792-5.797-2.811-8.133-4.972c-1.591-1.473-1.524-1.729-3.579-1.729
					c0.5,0.5,1,1,1.5,1.5c0.488-8.824-5.301-17.369-11.246-23.446c-0.486,0.835-0.973,1.671-1.459,2.507
					c7.572,2.685,17.384,0.513,25.047-1.053c-0.633-0.482-1.266-0.964-1.898-1.446c-0.392,16.645,22.084,15.553,33.476,15.391
					c9.996-0.142,18.74,1.479,26.63,8.209c10.041,8.564,13.006,22.244,6.1,33.644c-1.006,1.659,1.589,3.166,2.59,1.514
					c11.785-19.45-3.233-41.584-23.741-45.828c-10.868-2.249-42.479,5.185-42.054-12.929c0.024-1.027-0.971-1.636-1.898-1.446
					c-7.124,1.455-16.408,3.55-23.453,1.053c-1.469-0.521-2.457,1.486-1.459,2.507c5.394,5.514,10.811,13.323,10.367,21.325
					c-0.045,0.817,0.717,1.5,1.5,1.5c1.342,0,2.888,2.15,3.938,3.002c1.252,1.014,2.639,1.776,4.072,2.497
					c3.022,1.519,6.447,1.92,9.781,1.922c8.391,0.006,16.414-3.67,24.757-4.316c17.362-1.348,36.312,12.508,33.895,30.957
					C576.441,309.281,579.445,309.257,579.692,307.367L579.692,307.367z"/>
			</g>
		</g>
		<path fill="#45A98C" stroke="#45A98C" stroke-width="4" stroke-miterlimit="10" d="M389.529,233.619l-76.35,53.797l41.311,25.998
			l67.351-43.019l-27.622,141.147l44.497,28.688l123.459-80.604L518.2,333.938l-65.909,43.031l17.175-106.121
			C469.466,270.848,446.666,241.11,389.529,233.619z"/>
		<path fill="#45A98C" d="M456.256,253.997"/>
		<g>
			<path fill="#FFFFFF" d="M500.607,201.254c19.18-29.368,13.186-80.912-11.986-105.485c-28.17-27.57-86.906-22.775-118.671-4.795
				c-22.176,11.987-23.375,25.772-25.173,49.746c-1.198,20.378-2.997,48.547,13.186,63.531"/>
			<g>
				<path fill="#45A98C" d="M501.902,202.012c11.334-17.772,13.29-39.987,10.141-60.42c-3.099-20.1-12.424-40.317-29.148-52.538
					c-17.018-12.435-39.945-15.164-60.414-14.012c-20.642,1.161-42.129,6.78-59.443,18.372
					c-17.201,11.515-18.797,30.82-19.908,49.839c-1.214,20.778-2.525,46.346,13.774,62.059c1.392,1.342,3.516-0.776,2.121-2.121
					c-17.459-16.832-14.081-46.189-12.307-68.142c0.811-10.025,1.924-20.331,7.512-28.963c5.929-9.16,16.852-14.65,26.625-18.737
					c20.724-8.667,44.598-11.529,66.802-8.365c22.54,3.212,41.31,14.354,52.184,34.67c13.718,25.627,15.421,61.835-0.527,86.843
					C498.269,202.134,500.866,203.637,501.902,202.012L501.902,202.012z"/>
			</g>
		</g>
		<g>
			<path fill="#FFFFFF" d="M377.742,231.767c-25.556,9.483-58.547,18.634-80.124,8.445c-15.583-7.792-50.346-47.948-67.727-21.577
				l-1.199,1.798c2.397-30.567,26.371-37.759,47.948-17.381c10.789,9.59,19.179,23.974,34.762,23.375
				c11.388-0.6,47.16-7.792,46.561-22.176"/>
			<g>
				<path fill="#45A98C" d="M377.343,230.32c-17.812,6.567-36.438,12.372-55.562,12.847c-8.253,0.206-17.272-0.854-24.61-4.894
					c-5.039-2.775-9.545-6.645-14.067-10.16c-9.593-7.455-19.691-15.668-31.614-18.951c-10.541-2.902-18.356,1.909-24.092,10.514
					c0.932,0.252,1.864,0.504,2.795,0.757c0.758-8.284,3.053-16.608,9.24-22.505c5.499-5.241,13.326-5.725,20.282-3.695
					c16.789,4.9,24.483,22.906,39.277,30.879c10.74,5.789,25.341,1.504,36.262-1.737c8.77-2.603,24.193-7.777,24.21-19.125
					c0.003-1.935-2.997-1.935-3,0c-0.009,6.045-6.222,9.6-10.958,12.001c-6.479,3.285-13.718,5.186-20.785,6.714
					c-5.935,1.284-12.383,2.622-18.443,1.575c-9.06-1.565-15.752-9.462-21.739-15.776c-9.508-10.027-21.313-20.466-36.166-18.397
					c-14.364,2.001-20.034,17.553-21.179,30.065c-0.146,1.598,2.039,1.892,2.795,0.757c2.997-4.496,6.223-8.244,11.671-9.578
					c5.787-1.417,12.111,1.112,17.207,3.625c10.902,5.378,20.146,13.674,29.811,20.912c25.789,19.313,62.273,7.088,89.463-2.937
					C379.939,232.55,379.162,229.649,377.343,230.32L377.343,230.32z"/>
			</g>
		</g>
		<g>
			<g>
				<path fill="#45A98C" d="M498.948,201.393c-6.928,8.493-13.041,17.567-20.755,25.398c-1.358,1.379,0.762,3.501,2.121,2.121
					c7.72-7.837,13.822-16.898,20.755-25.398C502.281,202.028,500.172,199.893,498.948,201.393L498.948,201.393z"/>
			</g>
		</g>
		<g>
			<path fill="#FFFFFF" d="M490.22,249.842c20.997,3.882,44.847-12.39,57.137-29.408c9.59-13.785,18.58-28.169,25.173-43.752
				c7.192-16.782,19.778-19.779,31.766-31.766l2.397-2.397c-25.173-1.199-46.749,16.782-59.935,36.561
				c-7.792,10.788-11.987,21.577-23.375,29.368c-9.59,6.593-16.781,4.195-26.971,5.394"/>
			<g>
				<path fill="#45A98C" d="M489.821,251.288c13.26,2.158,25.973-2.432,37.065-9.493c12.902-8.214,21.626-19.932,29.796-32.581
					c4.575-7.083,8.788-14.391,12.591-21.917c3.646-7.215,6.147-14.765,11.531-20.95c4.322-4.964,9.996-8.584,15.238-12.476
					c4.202-3.119,8.016-6.598,11.71-10.292c0.948-0.948,0.229-2.519-1.061-2.561c-22.686-0.732-42.042,12.817-55.783,29.847
					c-7.415,9.19-12.561,20.016-20.19,29.013c-4.297,5.067-9.837,9.257-16.272,11.075c-5.748,1.624-12.136,0.788-18.034,1.388
					c-1.905,0.194-1.924,3.196,0,3c10.678-1.086,20.38,0.175,29.418-6.823c9.419-7.292,14.662-17.698,21.267-27.334
					c13.732-20.035,33.829-37.997,59.596-37.166c-0.354-0.854-0.707-1.707-1.061-2.561c-7.445,7.445-16.345,12.873-24.112,19.898
					c-4.486,4.058-7.816,9.079-10.285,14.568c-3.475,7.723-7.197,15.228-11.463,22.551c-7.486,12.85-15.603,25.586-27.024,35.287
					c-11.404,9.685-26.872,17.117-42.129,14.634C488.727,248.087,487.915,250.978,489.821,251.288L489.821,251.288z"/>
			</g>
		</g>
		<path fill="none" stroke="#45A98C" stroke-width="4" stroke-miterlimit="10" d="M385.948,239.907"/>
		<path fill="none" stroke="#45A98C" stroke-width="4" stroke-miterlimit="10" d="M384.104,241.11"/>
		<g>
			<g>
				<path fill="#45A98C" d="M464.841,315.035c16.881-4.292,32.749-22.741,36.406-39.379c1.987-9.041-0.951-17.679-7.568-24.013
					c-1.345-1.287-4.137-2.458-5.13-3.829c-0.885-1.223-1.725-2.479-2.553-3.741c-2.493-3.799-6.573-9.276-6.064-14.051
					c0.205-1.923-2.797-1.903-3,0c-0.696,6.537,5.28,14.02,8.828,19.028c2.384,3.365,6.759,5.172,9.334,8.684
					c2.89,3.942,3.925,8.72,3.735,13.527c-0.395,9.997-6.885,19.363-13.405,26.459c-5.674,6.175-13.089,12.313-21.38,14.422
					C462.17,312.619,462.965,315.513,464.841,315.035L464.841,315.035z"/>
			</g>
		</g>
		<g>
			<path fill="#FFFFFF" d="M494.215,405.033c-2.796,7.191-16.383,9.189-23.574,8.791c-10.788-0.4-21.577-4.396-31.965-7.593
				c-11.987-3.196-21.977-7.991-30.767-17.181c-5.195-4.795-14.384-27.57-4.396-30.768l9.876-44.694
				c-21.462,7.535-35.847,38.701-36.646,59.079c-0.799,29.967,29.567,54.741,57.937,57.139c27.171,1.998,77.516,9.189,76.716-32.365
				"/>
			<g>
				<path fill="#45A98C" d="M492.92,404.276c-3.445,7.429-15.162,8.332-22.279,8.048c-12.36-0.493-24.45-5.256-36.156-8.878
					c-17.027-5.268-32.823-17.516-33.917-36.512c-0.1-1.729,0.116-3.485,0.853-5.063c0.717-1.535,2.126-1.5,3.153-2.527
					c0.548-0.547,0.598-1.619,0.753-2.325c1.064-4.814,2.128-9.629,3.192-14.443c2.105-9.529,4.211-19.059,6.316-28.588
					c0.226-1.021-0.704-2.27-1.845-1.845c-19.383,7.218-30.86,28.369-35.76,47.371c-5.588,21.67,2.81,41.8,19.679,55.91
					c8.458,7.074,18.663,12.032,29.367,14.579c8.142,1.938,16.931,2.06,25.26,2.596c15.657,1.01,33.716,1.581,47.628-6.87
					c10.011-6.081,13.809-17.04,13.731-28.287c-0.013-1.934-3.014-1.936-3,0c0.063,9.229-2.405,17.804-9.667,23.878
					c-6.469,5.41-15.545,7.28-23.695,8.172c-8.624,0.943-17.372,0.6-26.01,0.043c-9.173-0.592-18.562-0.945-27.439-3.465
					c-23.483-6.667-45.11-27.881-44.841-53.401c0.115-10.945,4.38-22.246,9.384-31.805c5.27-10.067,12.891-19.438,23.189-24.598
					c0.968-0.468,1.958-0.877,2.971-1.23c-0.615-0.615-1.229-1.23-1.845-1.845c-2.438,11.035-4.877,22.071-7.315,33.106
					c-0.59,2.668-1.179,5.335-1.769,8.002c-0.193,0.877-0.388,1.754-0.581,2.631c-0.301,1.361-0.314,0.356,0.088,0.199
					c-6.29,2.455-5.009,11.254-3.794,16.338c4.575,19.15,21.787,29.291,39.706,34.211c12.061,3.312,23.657,8.162,36.412,7.633
					c7.234-0.3,17.429-2.206,20.82-9.521C496.318,404.047,493.732,402.522,492.92,404.276L492.92,404.276z"/>
			</g>
		</g>
		<g>
			<path fill="#D6E5EA" d="M436.478,191.665c-7.792,8.391,4.795,27.57,12.586,13.186c4.795-8.391-2.397-26.971-11.986-14.384"/>
			<g>
				<path fill="#45A98C" d="M435.417,190.604c-4.102,4.713-3.471,11.585-0.094,16.537c3.552,5.207,9.666,5.736,13.6,0.681
					c4.106-5.277,4.002-12.79,0.966-18.561c-1.146-2.176-3.174-4.159-5.695-4.479c-3.444-0.437-6.196,2.126-8.177,4.622
					c-1.189,1.498,0.919,3.636,2.121,2.121c1.41-1.776,3.164-3.866,5.638-3.796c1.794,0.05,3.051,2.148,3.77,3.515
					c2.164,4.112,2.107,9.537-0.17,13.54c-2.609,4.585-6.857,4.66-9.755,0.411c-2.458-3.603-3.091-9.012-0.082-12.47
					C438.802,191.273,436.689,189.143,435.417,190.604L435.417,190.604z"/>
			</g>
		</g>
		<path fill="#45A98C" stroke="#45A98C" stroke-width="4" stroke-miterlimit="10" d="M471.839,262.388"/>
		<g>
			<path fill="#FFFFFF" d="M379.54,299.547c-12.786,6.395-34.762,2.798-45.55-5.594c-11.587-8.79-11.987-27.17-16.782-39.157
				c-4.395,7.991-3.196,25.972-1.598,35.162c2.397,12.786,13.984,23.974,25.172,29.968c19.978,9.988,45.95,6.393,61.532-9.99
				c5.194-5.993,10.39-20.776,5.595-28.369"/>
			<g>
				<path fill="#45A98C" d="M378.782,298.252c-13.139,6.167-31.389,3.103-43.111-4.906c-12.282-8.391-12.167-26.293-17.017-38.948
					c-0.423-1.105-2.102-1.63-2.742-0.358c-2.972,5.906-3.253,12.823-3.25,19.313c0.003,7.524,0.52,15.698,3.226,22.779
					c5.735,15.007,21.343,25.907,36.517,29.489c15.126,3.571,31.592,0.192,44.226-8.743c10.191-7.207,19.405-23.788,12.574-36.068
					c-0.94-1.69-3.531-0.179-2.59,1.514c3.368,6.057,1.245,13.782-1.298,19.765c-2.756,6.485-7.86,10.884-13.738,14.552
					c-11.733,7.32-26.46,8.901-39.755,5.764c-14.411-3.402-28.254-14.539-33.584-28.487c-2.255-5.901-2.369-12.898-2.555-19.14
					c-0.188-6.323-0.083-13.458,2.819-19.224c-0.914-0.119-1.828-0.238-2.742-0.358c5.527,14.423,5.411,31.87,19.369,41.407
					c12.251,8.37,31.688,10.566,45.167,4.24C382.047,300.021,380.523,297.435,378.782,298.252L378.782,298.252z"/>
			</g>
		</g>
		<g>
			<path fill="#D6E5EA" d="M388.53,191.665c-7.792,8.391,4.795,27.57,12.586,13.186c4.795-8.391-2.397-26.971-11.987-14.384"/>
			<g>
				<path fill="#45A98C" d="M387.469,190.604c-4.101,4.713-3.47,11.585-0.093,16.537c3.551,5.207,9.666,5.736,13.6,0.681
					c4.106-5.277,4.002-12.791,0.966-18.561c-1.146-2.176-3.174-4.159-5.696-4.479c-3.444-0.437-6.196,2.126-8.177,4.622
					c-1.189,1.498,0.918,3.636,2.121,2.121c1.41-1.776,3.165-3.866,5.638-3.796c1.794,0.05,3.051,2.148,3.77,3.515
					c2.164,4.112,2.107,9.537-0.17,13.54c-2.609,4.585-6.857,4.66-9.755,0.411c-2.458-3.603-3.091-9.012-0.082-12.47
					C390.854,191.273,388.741,189.143,387.469,190.604L387.469,190.604z"/>
			</g>
		</g>
		<g>
			<path fill="#FFFFFF" d="M508.2,336.308c1.199-6.394,8.79-25.572,16.781-24.772l-1.198,0.398
				c-21.977-1.198-33.563,16.383-33.563,36.761"/>
			<g>
				<path fill="#45A98C" d="M509.646,336.706c0.904-4.392,2.636-8.614,4.592-12.631c1.941-3.987,5.521-11.162,10.743-11.04
					c-0.133-0.982-0.266-1.964-0.398-2.946c-2.315,0.77-5.29,0.323-7.739,0.619c-2.659,0.32-5.209,1.058-7.695,2.033
					c-4.307,1.689-7.998,4.557-11.068,7.973c-6.778,7.539-9.235,18.099-9.36,27.98c-0.024,1.936,2.976,1.933,3,0
					c0.123-9.724,2.648-19.372,9.267-26.732c3.04-3.382,7-5.711,11.266-7.175c4.31-1.479,8.993-0.431,13.128-1.806
					c1.598-0.531,1.331-2.906-0.398-2.946c-10.464-0.244-16.562,17.79-18.228,25.874
					C506.365,337.797,509.257,338.601,509.646,336.706L509.646,336.706z"/>
			</g>
		</g>
		<g>
			<path fill="#D6E5EA" d="M256.063,205.449c3.196,2.397,19.179,16.782,18.379,6.792c0-3.996-7.591-9.589-11.587-9.989
				c-3.596,0-9.59,3.197-3.996,5.994"/>
			<g>
				<path fill="#D6E5EA" d="M255.307,206.744c3.16,2.417,20.241,17.647,20.665,6.141c0.216-5.845-7.119-10.713-12.092-11.981
					c-5.521-1.407-12.368,4.757-5.777,8.637c1.671,0.983,3.18-1.61,1.515-2.591c-3.743-2.203,2.746-3.337,4.135-2.983
					c2.221,0.566,4.327,2.136,6.038,3.588c1.361,1.156,5.707,7.759,1.189,6.398c-5.346-1.611-9.82-6.481-14.159-9.8
					C255.283,202.978,253.792,205.585,255.307,206.744L255.307,206.744z"/>
			</g>
		</g>
		<g>
			<path fill="#D6E5EA" d="M315.19,239.597c-3.996-2.397-7.184-2.384-3.188-5.58c1.998-1.199,11.188-2.397,13.186-1.199
				c11.188,5.594-7.192,6.792-10.788,6.792"/>
			<g>
				<path fill="#D6E5EA" d="M315.947,238.301c-0.95-0.542-1.918-1.034-2.903-1.51c-1.231-0.595-1.552-0.807-0.034-1.613
					c1.49-0.791,3.636-0.925,5.274-1.126c2.862-0.352,6.946-0.808,8.919,1.929c0.061,0.084,0.302-0.371-0.039-0.033
					c-0.314,0.313-0.877,0.479-1.282,0.626c-1.354,0.493-2.809,0.735-4.227,0.959c-2.386,0.377-4.84,0.562-7.256,0.576
					c-1.934,0.011-1.935,3.011,0,3c3.833-0.022,7.833-0.393,11.534-1.407c3.278-0.898,6.074-3.699,2.667-6.527
					c-4.147-3.442-9.875-2.497-14.757-1.379c-2.092,0.479-4.774,1.774-5.125,4.155c-0.413,2.804,3.909,3.909,5.715,4.94
					C316.116,241.853,317.627,239.26,315.947,238.301L315.947,238.301z"/>
			</g>
		</g>
		<g>
			<path fill="#D6E5EA" d="M337.023,310.936c-3.626-2.537-9.064-6.163-9.426-10.877c7.251-2.537,17.402,5.438,17.765,12.69
				c-3.988,0.725-7.976-2.538-11.239-4.351"/>
			<g>
				<path fill="#D6E5EA" d="M337.78,309.641c-3.591-2.508-8.061-5.29-8.737-9.98c-0.349,0.615-0.698,1.229-1.047,1.845
					c6.715-1.979,15.201,4.401,15.866,11.244c0.5-0.5,1-1,1.5-1.5c-4.013,0.38-7.192-2.238-10.482-4.146
					c-1.677-0.973-3.187,1.62-1.514,2.59c3.773,2.188,7.408,4.989,11.996,4.556c0.75-0.071,1.584-0.631,1.5-1.5
					c-0.848-8.729-10.937-16.709-19.664-14.137c-0.858,0.253-1.166,1.024-1.047,1.845c0.792,5.488,5.914,8.84,10.115,11.773
					C337.856,313.342,339.354,310.739,337.78,309.641L337.78,309.641z"/>
			</g>
		</g>
		<g>
			<path fill="#D6E5EA" d="M372.956,307.208c-2.437,0.348-9.749,1.74-9.4,4.874c0.348,4.178,9.748,3.829,12.534,3.481
				c3.481-0.696,10.444-4.526,6.267-8.704c-1.742-1.741-8.356-0.696-10.793-0.348"/>
			<g>
				<path fill="#D6E5EA" d="M372.557,305.762c-3.843,0.584-11.377,1.913-10.338,7.285c0.917,4.744,9.535,4.343,12.908,4.112
					c3.63-0.249,11.41-3.66,9.927-8.534c-1.808-5.943-9.199-4.236-13.889-3.56c-1.909,0.275-1.094,3.166,0.798,2.893
					c1.975-0.285,10.874-2.142,10.114,2.027c-0.542,2.979-5.755,4.127-8.191,4.245c-2.41,0.117-7.092,0.407-8.703-1.831
					c-1.397-1.941,7.161-3.592,8.172-3.745C375.263,308.365,374.449,305.475,372.557,305.762L372.557,305.762z"/>
			</g>
		</g>
		<g>
			<path fill="#D6E5EA" d="M399.116,342.301c-4.395,2.398-18.38,19.18-5.994,15.584c11.587-3.596,12.386-27.971-2.797-11.188"/>
			<g>
				<path fill="#D6E5EA" d="M398.359,341.006c-4.763,2.777-9.808,8.845-11.494,14.093c-0.656,2.04,0.077,4.104,2.248,4.671
					c2.939,0.768,6.396-1.015,8.612-2.778c3.86-3.073,6.916-9.892,5.058-14.764c-2.689-7.049-10.916,0.59-13.518,3.408
					c-1.31,1.419,0.806,3.546,2.121,2.121c1.251-1.354,7.671-8.464,8.792-3.791c0.883,3.682-1.638,8.157-4.193,10.572
					c-1.467,1.387-4.007,2.62-6.075,2.339c-0.964-0.131,0.724-2.956,1.072-3.551c2.062-3.521,5.307-7.641,8.891-9.73
					C401.543,342.622,400.034,340.029,398.359,341.006L398.359,341.006z"/>
			</g>
		</g>
		<g>
			<path fill="#D6E5EA" d="M383.524,383.059c0.4,7.192,15.184,23.176,13.187,8.391c-0.799-4.794-5.194-12.386-10.389-13.186
				c-7.192-0.799-4.795,5.195-0.799,7.992"/>
			<g>
				<path fill="#D6E5EA" d="M382.024,383.059c0.458,5.332,4.543,10.801,8.604,14.052c1.426,1.142,3.536,2.471,5.426,1.674
					c2.319-0.979,2.42-3.839,2.299-5.999c-0.375-6.675-5.543-15.498-12.791-16.083c-2.682-0.216-5.328,1.084-5.351,4.017
					c-0.022,2.804,2.49,5.304,4.555,6.832c1.558,1.152,3.051-1.453,1.515-2.59c-1.217-0.9-3.327-2.834-3.068-4.568
					c0.128-0.859,1.782-0.697,2.349-0.69c1.543,0.02,2.901,0.915,4.034,1.872c3.669,3.102,6.117,8.542,5.752,13.339
					c-0.233,3.056-4.504-1.63-5.306-2.521c-2.196-2.438-4.727-5.951-5.018-9.334C384.86,381.146,381.858,381.13,382.024,383.059
					L382.024,383.059z"/>
			</g>
		</g>
		<g>
			<path fill="#D6E5EA" d="M414.302,406.436c2.796,2.796,21.576,19.578,23.974,9.189c1.598-7.592-21.976-10.789-27.171-10.789
				c0.8,3.597,5.195,5.594,8.391,6.395"/>
			<g>
				<path fill="#D6E5EA" d="M413.241,407.496c3.699,3.637,22.912,20.775,26.258,9.292c3.232-11.096-21.72-13.353-28.395-13.452
					c-0.931-0.014-1.765,0.977-1.446,1.898c1.478,4.284,5.272,6.265,9.438,7.442c1.865,0.527,2.656-2.367,0.797-2.893
					c-3.011-0.852-6.219-2.088-7.343-5.347c-0.482,0.633-0.964,1.266-1.446,1.898c4.263,0.063,8.534,0.835,12.688,1.736
					c3.718,0.807,11.358,2.141,12.966,6.235c1.15,2.929-2.476,3.311-4.237,2.88c-2.521-0.616-4.864-2.183-7.01-3.582
					c-3.627-2.365-7.06-5.194-10.148-8.23C413.982,404.019,411.859,406.139,413.241,407.496L413.241,407.496z"/>
			</g>
		</g>
		<g>
			<path fill="#D6E5EA" d="M464.646,419.303c-3.597,0-15.984-2.459-10.789,4.427c3.196,3.442,11.188,1.967,14.784,1.967
				c2.397,0,16.382,0,9.988-4.917c-3.596-2.46-14.384-0.492-18.778-0.984"/>
			<g>
				<path fill="#D6E5EA" d="M464.646,417.803c-3.32-0.087-13.892-2.443-13.5,3.602c0.525,8.119,13.407,5.817,18.362,5.789
					c3.008-0.018,13.541,0.309,12.101-5.129c-1.867-7.046-16.995-3.413-21.758-3.77c-1.931-0.145-1.917,2.856,0,3
					c5.289,0.396,10.603-0.817,15.879,0.004c3.269,0.51,3.166,1.847,0.406,2.413c-1.966,0.403-4.037,0.429-6.036,0.474
					c-4.377,0.097-8.942,0.878-13.22-0.304c-2.098-0.58-3.562-3.138-0.926-3.448c1.133-0.133,2.303-0.05,3.438,0.003
					c1.755,0.081,3.498,0.32,5.254,0.366C466.581,420.854,466.576,417.854,464.646,417.803L464.646,417.803z"/>
			</g>
		</g>
		<g>
			<path fill="#D6E5EA" d="M498.411,406.231c-2.797,2.798-9.989,10.788-1.199,9.989c4.795-0.399,7.992-9.59,2.798-11.587"/>
			<g>
				<path fill="#D6E5EA" d="M497.351,405.171c-2.183,2.2-4.366,4.613-5.546,7.515c-1.296,3.187,1.297,4.977,4.179,5.091
					c6.86,0.271,12.013-11.231,4.783-14.438c-1.752-0.777-3.279,1.808-1.514,2.59c2.091,0.928,2.162,2.938,1.59,4.921
					c-0.686,2.376-2.412,3.88-4.859,3.927c-2.484,0.047-1.175-1.701-0.296-3.051c1.058-1.623,2.424-3.062,3.784-4.434
					C500.835,405.918,498.715,403.796,497.351,405.171L497.351,405.171z"/>
			</g>
		</g>
		<g>
			<path fill="#D6E5EA" d="M500.608,328.445c-2.403,6.008,2.704,13.518,5.106,5.106c0.301-0.901,0.601-6.608,0-7.209
				c-2.402-2.103-6.008,2.103-6.308,4.205"/>
			<g>
				<path fill="#D6E5EA" d="M499.162,328.047c-1.14,3.043-1.035,7.579,1.601,9.89c3.168,2.777,5.979-1.566,6.488-4.391
					c0.293-1.625,0.329-3.325,0.306-4.972c-0.022-1.59-0.113-3.005-1.598-3.874c-3.323-1.948-7.427,2.437-7.998,5.449
					c-0.358,1.89,2.532,2.696,2.893,0.797c0.179-0.942,0.731-1.73,1.365-2.432c0.367-0.406,0.778-0.727,1.246-1.006
					c0.278-0.165,1.104-0.209,1.012-0.332c-0.139-0.187,0.029,0.376,0.044,0.548c0.048,0.594,0.044,1.192,0.038,1.788
					c-0.009,1.079-0.073,2.162-0.197,3.233c-0.106,0.919-0.555,2.054-1.145,2.771c-0.352,0.428-0.381,0.369-0.707-0.059
					c-1.398-1.837-1.217-4.579-0.455-6.615C502.734,327.028,499.834,326.252,499.162,328.047L499.162,328.047z"/>
			</g>
		</g>
		<g>
			<path fill="#D6E5EA" d="M480.036,277.772c-7.192,7.192-3.597,19.978,6.393,12.387c11.588-7.991,2.397-23.974-7.592-11.188"/>
			<g>
				<path fill="#D6E5EA" d="M478.976,276.712c-3.527,3.691-5.831,9.859-2.94,14.602c3.433,5.632,10.728,1.114,13.93-2.236
					c3.416-3.574,4.848-9.972,1.365-14.007c-4.249-4.924-10.312-1.162-13.554,2.84c-1.206,1.488,0.902,3.625,2.121,2.121
					c2.035-2.511,5.945-6.286,9.059-3.133c2.756,2.791,1.062,7.555-1.112,10.057c-1.876,2.159-7.149,6.238-9.419,2.516
					c-2.053-3.368,0.307-8.162,2.672-10.638C482.433,277.436,480.314,275.311,478.976,276.712L478.976,276.712z"/>
			</g>
		</g>
		<g>
			<path fill="#D6E5EA" d="M481.829,255.195c-5.195,13.186,9.189,4.795,1.997,1.199"/>
			<g>
				<path fill="#D6E5EA" d="M480.383,254.797c-0.953,2.435-2.425,6.807,0.408,8.613c1.79,1.142,4.289-0.036,5.47-1.531
					c0.853-1.079,1.273-2.284,1.032-3.663c-0.247-1.415-1.495-2.5-2.71-3.116c-0.729-0.37-1.621-0.198-2.052,0.538
					c-0.395,0.673-0.19,1.683,0.538,2.052c0.271,0.138,0.53,0.289,0.777,0.465c0.225,0.158-0.299-0.239-0.089-0.071
					c0.05,0.04,0.098,0.082,0.146,0.125c0.105,0.093,0.203,0.194,0.296,0.299c0.224,0.253-0.231-0.339,0,0.005
					c0.058,0.086,0.107,0.176,0.154,0.269c0.145,0.286-0.146-0.414-0.022-0.041c0.035,0.104,0.059,0.212,0.077,0.32
					c-0.109-0.628-0.017-0.018-0.036,0.193c-0.021,0.228,0.066-0.444,0.029-0.219c-0.008,0.045-0.018,0.09-0.027,0.134
					c-0.023,0.105-0.056,0.208-0.091,0.309c-0.127,0.364,0.158-0.34,0.025-0.059c-0.041,0.086-0.087,0.168-0.135,0.249
					c-0.048,0.083-0.101,0.162-0.154,0.24c-0.226,0.324,0.254-0.302-0.003,0c-0.125,0.147-0.264,0.284-0.408,0.414
					c-0.104,0.093-0.427,0.339,0.042-0.021c-0.089,0.068-0.182,0.132-0.275,0.192c-0.157,0.103-0.323,0.191-0.493,0.271
					c-0.28,0.131,0.422-0.161,0.064-0.031c-0.097,0.035-0.195,0.064-0.295,0.09c-0.083,0.021-0.167,0.038-0.251,0.052
					c0.609-0.1,0.266-0.032,0.111-0.025c-0.08,0.003-0.16,0-0.239-0.006c-0.274-0.02,0.486,0.101,0.093,0.003
					c-0.145-0.036-0.448-0.181,0.107,0.062c-0.069-0.03-0.136-0.069-0.2-0.11c-0.236-0.15,0.346,0.304,0.091,0.064
					c-0.029-0.027-0.057-0.057-0.084-0.087c-0.192-0.212,0.23,0.315,0.106,0.139c-0.098-0.139-0.286-0.61-0.061-0.049
					c-0.066-0.165-0.108-0.339-0.143-0.514c-0.066-0.349,0.04,0.355,0.012,0.1c-0.012-0.109-0.018-0.219-0.021-0.328
					c-0.009-0.25,0.004-0.5,0.025-0.748c0.009-0.108,0.063-0.521-0.005-0.022c0.021-0.151,0.048-0.302,0.075-0.453
					c0.062-0.339,0.144-0.674,0.232-1.006c0.208-0.782,0.479-1.547,0.774-2.301c0.299-0.762-0.321-1.646-1.048-1.845
					C481.377,253.515,480.681,254.036,480.383,254.797L480.383,254.797z"/>
			</g>
		</g>
		<g>
			<path fill="#D6E5EA" d="M523.847,222.624c-4.233-0.706-11.289,4.233-9.879,9.173c1.765,5.997,14.817,1.058,18.347-1.411
				c11.642-9.173-7.763-11.643-14.113-6.703"/>
			<g>
				<path fill="#D6E5EA" d="M523.847,221.124c-5.532-0.503-15.407,6.734-10.442,12.791c4.149,5.061,13.796,0.948,18.344-1.433
					c4.172-2.185,8.427-7.932,3.043-11.236c-4.704-2.887-13-1.982-17.347,1.141c-1.556,1.118-0.061,3.722,1.514,2.591
					c3.015-2.167,6.975-2.497,10.571-2.186c1.558,0.135,3.374,0.556,4.554,1.638c1.595,1.463-1.903,4.248-2.909,4.915
					c-3.319,2.202-7.785,3.575-11.738,3.798c-2.924,0.166-5.099-1.4-3.63-4.585c1.303-2.825,5.039-4.708,8.041-4.435
					C525.773,224.299,525.757,221.298,523.847,221.124L523.847,221.124z"/>
			</g>
		</g>
		<g>
			<path fill="#D6E5EA" d="M546.454,194.363c-2.513,2.512-6.819,9.332-6.102,12.921c1.436,6.101,7.538,3.948,10.768,0.358
				c1.435-1.794,6.461-11.126,3.948-13.639c-3.229-3.589-9.69,2.513-11.127,5.025"/>
			<g>
				<path fill="#D6E5EA" d="M545.394,193.303c-3.865,4.042-8.621,11.189-5.508,16.791c3.025,5.445,10.685,1.167,13.101-2.513
					c2.295-3.495,6.348-10.717,3.143-14.638c-3.935-4.813-11.34,1.873-13.482,5.328c-1.023,1.649,1.573,3.154,2.59,1.515
					c0.952-1.535,7.608-8.211,8.947-4.358c0.988,2.841-1.963,7.515-3.31,9.857c-1.509,2.624-7.011,6.91-8.851,2.382
					c-1.532-3.769,3.071-9.712,5.491-12.243C548.852,194.026,546.732,191.902,545.394,193.303L545.394,193.303z"/>
			</g>
		</g>
		<g>
			<path fill="#D6E5EA" d="M566.875,170.348c-2.443,0.271-5.973,7.602-2.443,8.145c2.986,0.543,4.887-6.787,4.344-8.688"/>
			<g>
				<path fill="#D6E5EA" d="M566.477,168.902c-3.652,0.686-7.664,9.165-2.968,10.886c4.911,1.8,7.515-6.907,6.713-10.382
					c-0.435-1.885-3.327-1.085-2.893,0.798c0.381,1.651-0.738,6.226-2.553,6.817c-0.764,0.249-0.015-2.035,0.084-2.304
					c0.361-0.993,1.262-2.707,2.413-2.923C569.174,171.438,568.367,168.547,566.477,168.902L566.477,168.902z"/>
			</g>
		</g>
		<g>
			<path fill="#D6E5EA" d="M437.876,117.745c8.391,1.998,13.984,18.78,17.58,25.972c4.396,8.391,8.791,20.378,15.583,26.771
				c5.994,5.594,19.18,8.791,26.372,3.197c7.191-5.194,4.795-16.782,4.795-24.374c0-21.576-16.382-44.751-37.56-50.345
				c-7.991-1.998-23.174-6.393-29.568,1.199c-2.796,3.196-3.995,10.789-1.198,14.784c1.198,1.998,4.396,3.197,6.394,4.396"/>
			<g>
				<path fill="#D6E5EA" d="M437.478,119.191c9.017,2.716,12.746,16.914,16.304,24.505c4.424,9.436,8.76,22.317,17.361,28.833
					c7.379,5.59,19,8.046,27.025,2.45c8.059-5.619,5.65-17.364,5.538-25.669c-0.293-21.66-14.592-42.588-34.749-50.542
					c-8.421-3.322-19.728-5.845-28.643-3.569c-7.62,1.945-12.42,12.502-8.306,19.522c1.777,3.032,4.525,4.257,7.508,5.916
					c1.692,0.941,3.204-1.65,1.514-2.591c-2.683-1.492-5.469-2.478-6.72-5.569c-1.001-2.473-0.5-5.478,0.156-7.95
					c1.485-5.591,7.16-7.033,12.236-7.153c8.474-0.201,18.605,2.577,26.109,6.394c9.021,4.588,16.109,12.455,21.116,21.114
					c5.356,9.262,6.396,18.702,6.955,29.128c0.244,4.546,0.48,9.079-0.823,13.498c-1.757,5.952-8.089,7.7-13.583,7.564
					c-12.406-0.307-18.888-10.082-23.886-20.068c-3.803-7.597-7.224-15.357-10.838-23.04c-2.822-5.997-6.631-13.605-13.479-15.668
					C436.418,115.739,435.63,118.635,437.478,119.191L437.478,119.191z"/>
			</g>
		</g>
		<g>
			<g>
				<path fill="#45A98C" d="M374.304,234.915c16.533-10.068,113.582,24.032,91.977,48.001c-1.292,1.433,0.823,3.562,2.121,2.121
					c16.323-18.109-18.22-35.088-30.843-40.989c-7.063-3.302-13.652-5.456-21.12-7.49c-8.271-2.253-16.464-4.782-24.947-6.13
					c-6.141-0.976-13.175-1.47-18.702,1.896C371.14,233.328,372.646,235.923,374.304,234.915L374.304,234.915z"/>
			</g>
		</g>
		<g>
			<g>
				<path fill="#45A98C" d="M450.42,237.119c-6.528-3.684-14.104-5.242-20.057-9.934c-4.235-3.337-7.542-8.532-12.871-10.311
					c-5.426-1.811-10.101-0.039-15.162,2.128c-4.354,1.863-8.015,3.095-12.791,3.192c-3.93,0.08-7.868-0.226-11.798-0.265
					c-1.936-0.019-1.934,2.981,0,3c6.083,0.06,12.602,1.053,18.574-0.39c7.165-1.731,13.556-7.803,21.181-4.407
					c4.838,2.154,7.937,7.297,12.201,10.316c5.875,4.159,12.981,5.747,19.208,9.26C450.593,240.661,452.104,238.069,450.42,237.119
					L450.42,237.119z"/>
			</g>
		</g>
		<g>
			<g>
				<path fill="#45A98C" d="M436.632,178.928c6.186,7.774,15.351,11.094,23.804,15.735c1.696,0.931,3.21-1.66,1.514-2.591
					c-8.227-4.516-17.169-7.691-23.196-15.265C437.549,175.293,435.44,177.431,436.632,178.928L436.632,178.928z"/>
			</g>
		</g>
		<g>
			<g>
				<path fill="#45A98C" d="M398.397,177.61c-5.32,8.07-12.911,10.312-21.604,13.311c-1.817,0.627-1.036,3.525,0.798,2.893
					c9.523-3.286,17.602-5.899,23.396-14.689C402.056,177.504,399.457,176.003,398.397,177.61L398.397,177.61z"/>
			</g>
		</g>
		<g>
			<path fill="#FFFFFF" d="M484.294,135.738c-1.156,11.555-13.096,17.716-15.406,28.885c-1.924,10.784,3.466,20.412,15.021,21.567
				c10.012,0.77,17.716-4.237,18.1-14.25c0.386-11.169-7.316-18.872-12.323-28.116c-1.925-3.466-3.852-6.932-4.235-10.782"/>
			<g>
				<path fill="#45A98C" d="M482.848,135.339c-1.725,12.412-14.568,19.184-15.789,31.952c-1.037,10.842,6.448,19.015,16.85,20.4
					c10.384,1.383,18.853-5.498,19.6-15.75c1.108-15.209-14.39-25.076-16.612-39.297c-0.298-1.907-3.188-1.094-2.893,0.798
					c1.622,10.375,9.811,18.494,14.226,27.724c2.516,5.259,3.303,11.748,0.639,17.077c-2.518,5.035-8.466,6.509-13.608,6.517
					c-12.999,0.019-18.187-13.838-13.311-24.399c4.005-8.676,12.405-14.246,13.792-24.224
					C486.003,134.246,483.113,133.43,482.848,135.339L482.848,135.339z"/>
			</g>
		</g>
		<g>
			<path fill="#D6E5EA" d="M514.436,266.866c-3.44-0.345-5.39,3.784-2.409,5.503c2.638,1.49,10.664,4.128,13.187,1.376
				c2.293-2.637-0.688-6.191-3.211-7.224c-2.293-1.031-5.732-0.917-8.025,0"/>
			<g>
				<path fill="#D6E5EA" d="M514.436,265.366c-3.65-0.081-6.881,3.571-4.598,7.016c0.95,1.436,2.94,2.042,4.47,2.614
					c2.279,0.854,4.716,1.373,7.149,1.449c4.502,0.141,7.335-3.482,5.252-7.671c-2.319-4.662-8.791-5.229-13.131-3.699
					c-1.812,0.639-1.032,3.538,0.797,2.893c2.606-0.919,5.532-1.022,7.963,0.436c1.228,0.736,2.664,2.484,1.992,4.007
					c-0.446,1.013-1.979,1.016-2.873,1.035c-2.15,0.048-4.345-0.64-6.353-1.342c-0.802-0.28-1.573-0.627-2.321-1.029
					c-2.077-1.119,0.401-2.735,1.652-2.708C516.371,268.409,516.367,265.409,514.436,265.366L514.436,265.366z"/>
			</g>
		</g>
		<g>
			<path fill="#D6E5EA" d="M549.368,267.094c-2.287-0.305-7.625,0.153-4.117,3.355c1.525,1.524,6.405,1.982,8.692,1.83
				c3.355-0.306,3.813-2.136,1.068-4.117c-2.44-1.83-5.186-1.525-8.083-1.525"/>
			<g>
				<path fill="#D6E5EA" d="M549.368,265.594c-1.979-0.224-6.895-0.112-6.775,2.938c0.146,3.758,4.833,4.727,7.742,5.108
					c2.324,0.306,8.968,0.457,7.899-3.659c-1.236-4.763-7.449-4.867-11.306-4.844c-1.934,0.012-1.936,3.012,0,3
					c2.656-0.017,5.307-0.248,7.528,1.479c1.321,1.027,0.413,1.116-0.875,1.182c-0.912,0.046-1.83-0.023-2.738-0.103
					c-1.797-0.157-4.128-0.464-5.222-2.079c0.206,0.304-0.453,0.417,0.223,0.177c0.329-0.117,0.693-0.181,1.039-0.222
					c0.821-0.1,1.664-0.07,2.484,0.022C551.289,268.811,551.268,265.809,549.368,265.594L549.368,265.594z"/>
			</g>
		</g>
		<g>
			<path fill="#D6E5EA" d="M573.4,277.996c4.352,1.196,4.678,8.703-0.217,5.875c-1.197-0.653-2.721-2.611-2.502-4.025
				c0.217-1.414,2.502-2.938,3.371-1.088"/>
			<g>
				<path fill="#D6E5EA" d="M573.002,279.442c0.992,0.302,1.609,1.016,2.042,1.933c0.175,0.371,0.204,0.722,0.216,1.067
					c0.01,0.315-0.001,0.233-0.044,0.411c-0.053,0.225,0.033,0.059-0.104,0.199c0.122-0.125-0.152-0.02,0.145-0.055
					c-0.229,0.027-0.329-0.012-0.523-0.062c-0.649-0.169-1.184-0.597-1.643-1.064c-0.396-0.403-1.051-1.236-0.911-1.852
					c0.042-0.183,0.23-0.359,0.374-0.464c0.091-0.079,0.193-0.131,0.308-0.154c-0.142,0.046-0.299-0.237-0.103,0.112
					c0.946,1.687,3.538,0.175,2.59-1.514c-1.813-3.231-5.951-0.919-6.188,2.116c-0.229,2.942,3.222,5.761,5.93,5.886
					c2.461,0.114,3.408-2.464,3.074-4.492c-0.385-2.337-2.111-4.275-4.365-4.961C571.943,275.984,571.156,278.881,573.002,279.442
					L573.002,279.442z"/>
			</g>
		</g>
		<g>
			<path fill="#FFFFFF" d="M367.193,247.201c-6.333,0-11.667-0.334-17.333-4l-2.264-2.082c0,0,34.847-12.168,39.847-9.168
				S367.193,247.201,367.193,247.201z"/>
			<g>
				<path fill="#45A98C" d="M367.193,245.701c-6.928-0.043-13.265-0.795-18.537-5.643c-0.221,0.835-0.441,1.671-0.662,2.507
					c10.767-3.75,21.877-7.477,33.158-9.276c1.237-0.197,2.484-0.297,3.735-0.314c1.174-0.016,1.751-0.069,1.537,0.326
					c-1.274,2.352-4.643,4.011-6.809,5.38c-4.227,2.672-8.684,5.036-13.179,7.224c-1.739,0.847-0.217,3.434,1.515,2.591
					c5.547-2.701,11.045-5.659,16.126-9.167c2.474-1.708,9.24-7.708,2.715-9.181c-6.581-1.485-15.34,2.056-21.545,3.815
					c-6.068,1.72-12.093,3.634-18.049,5.709c-1.01,0.352-1.544,1.695-0.662,2.507c5.858,5.387,12.895,6.474,20.658,6.522
					C369.128,248.713,369.127,245.713,367.193,245.701z"/>
			</g>
		</g>
		<g>
			<path fill="#FFFFFF" d="M352.357,213.841c-4.667-3.333-9.497-10.307-11.497-15.974c-7.667-20-3.333-48.333-27.667-57.333
				c-10.333-4-18.667-5-29.333-0.667c-8.333,3.333-14.667,13-13.333,22.667c-1.667-18.667,25-14,33.333-4.667
				c15.333,17.667,12.333,44.333,25.333,63.333c0,0,10.645,1.952,21.947-8.316"/>
			<g>
				<path fill="#45A98C" d="M353.114,212.545c-20.694-15.956-10.743-47.489-27.684-65.9c-16.205-17.611-59.387-14.289-56.404,15.889
					c0.187,1.892,3.118,1.953,3,0c-0.774-12.863,12.895-12.512,21.802-9.315c12.855,4.613,17.589,19.186,20.845,31.205
					c1.803,6.655,3.24,13.397,5.231,20.002c1.67,5.54,4.026,13.633,8.228,17.834c1.317,1.317,5.177,0.558,6.675,0.328
					c6.675-1.026,12.333-4.268,17.393-8.644c1.466-1.268-0.666-3.38-2.121-2.121c-5.478,4.738-12.085,8.206-19.48,8.008
					c-1.787-0.048-2.938-4.067-3.759-5.692c-1.913-3.79-3.245-7.862-4.467-11.917c-4.263-14.138-6.043-29.125-14.498-41.625
					c-5.4-7.983-14.47-12.041-23.972-12.394c-8.973-0.333-15.43,5.153-14.877,14.329c1,0,2,0,3,0
					c-1.72-17.404,15.832-25.91,30.941-23.467c12.383,2.002,22.201,8.712,26.905,20.387c7.542,18.718,4.024,42.031,21.728,55.683
					C353.132,216.317,354.623,213.709,353.114,212.545L353.114,212.545z"/>
			</g>
		</g>
		<g>
			<path fill="#D6E5EA" d="M324.511,196.433c0,4.605,2.08,8.718,7.13,9.609c4.605,0.743,4.011-4.308,3.12-7.576
				c-1.04-3.12-5.051-12.329-9.507-10.695c-3.565,1.337-1.782,5.645-1.782,8.17"/>
			<g>
				<path fill="#D6E5EA" d="M323.011,196.433c0.158,5.146,2.874,10.612,8.63,11.109c5.745,0.496,5.608-5.402,4.566-9.475
					c-1.119-4.371-4.212-10.24-8.68-11.829c-2.092-0.744-4.21,0.625-5.352,2.261c-1.417,2.032-0.314,5.226-0.205,7.442
					c0.096,1.925,3.096,1.935,3,0c-0.089-1.796-1.585-8.678,2.599-6.427c2.516,1.354,4.078,5.193,5.124,7.69
					c0.603,1.438,2.646,7.146-0.2,7.411c-4.463,0.416-6.377-4.705-6.483-8.183C325.952,194.503,322.952,194.498,323.011,196.433
					L323.011,196.433z"/>
			</g>
		</g>
		<g>
			<path fill="#D6E5EA" d="M301.065,151.155c2.33,0.822,9.183,6.716,12.061,3.426c2.056-2.467-1.919-7.401-3.701-8.771
				c-2.056-1.645-7.949-3.29-9.868-0.549c-2.193,3.152,1.919,5.62,4.249,6.579"/>
			<g>
				<path fill="#D6E5EA" d="M300.667,152.601c3.787,1.538,7.192,5.408,11.666,4.239c5.493-1.437,1.71-8.21-0.423-10.716
					c-2.766-3.247-8.443-5.095-12.333-2.916c-1.85,1.037-2.468,3.446-1.856,5.345c0.728,2.258,3.308,3.704,5.329,4.582
					c1.756,0.762,3.285-1.822,1.515-2.591c-1.204-0.523-2.318-1.128-3.301-2.01c-2.299-2.064,0.68-3.287,2.523-3.214
					c2.968,0.116,5.262,1.802,6.935,4.107c0.757,1.043,1.672,2.506,1.433,3.849c-0.306,1.713-3.447,0.325-4.222-0.025
					c-2.246-1.016-4.182-2.616-6.467-3.543C299.671,148.98,298.898,151.883,300.667,152.601L300.667,152.601z"/>
			</g>
		</g>
		<path fill="#45A98C" stroke="#45A98C" stroke-width="4" stroke-miterlimit="10" d="M41.193,139.132"/>
		
			<line fill="#D6E5EA" stroke="#D6E5EA" stroke-width="3" stroke-miterlimit="10" x1="461.192" y1="336.925" x2="429.525" y2="349.912"/>
		
			<line fill="#D6E5EA" stroke="#D6E5EA" stroke-width="3" stroke-miterlimit="10" x1="449.442" y1="340.859" x2="440.859" y2="334.867"/>
		
			<line fill="#D6E5EA" stroke="#D6E5EA" stroke-width="3" stroke-miterlimit="10" x1="525.981" y1="385.867" x2="506.833" y2="361.867"/>
		<polyline fill="none" stroke="#D6E5EA" stroke-width="3" stroke-miterlimit="10" points="517.631,376.867 525.701,363.201 
			520.192,352.912 		"/>
		<polyline fill="none" stroke="#D6E5EA" stroke-width="3" stroke-miterlimit="10" points="381.546,263.533 397.3,253.504 
			402.36,263.533 418.192,261.352 		"/>
		<polyline fill="none" stroke="#D6E5EA" stroke-width="3" stroke-miterlimit="10" points="347.648,260.311 345.193,274.182 
			353.971,278.945 		"/>
		<g>
			<path fill="#45A98C" d="M118.193,496.867c0-54-6-107-17-160c16,3,18,71,20,88c3,23-7,60,3,81"/>
			<g>
				<path fill="#45A98C" d="M119.693,496.867c-0.072-53.927-6.157-107.609-17.054-160.398c-0.615,0.615-1.23,1.229-1.845,1.845
					c4.293,0.979,6.442,6.148,7.897,9.812c2.363,5.952,3.669,12.341,4.825,18.618c2.652,14.404,3.8,29.073,4.938,43.659
					c1.103,14.146,2.044,27.792,1.059,42.021c-1.222,17.638-4.18,37.537,3.385,54.2c0.799,1.76,3.384,0.233,2.591-1.514
					c-8.254-18.18-3.582-40.93-2.505-60.108c0.776-13.83-0.944-27.617-2.071-41.394c-1.2-14.673-2.61-29.435-5.739-43.841
					c-1.627-7.493-4.398-22.254-13.582-24.347c-1.157-0.264-2.08,0.708-1.845,1.845c10.843,52.533,16.875,105.938,16.946,159.602
					C116.695,498.802,119.695,498.802,119.693,496.867L119.693,496.867z"/>
			</g>
		</g>
		<g>
			<path fill="#45A98C" d="M133.104,509.934c-6-27-5-55.066-5-83.066c0-10,0-20,0-30c0-5-2.955-31,1.045-33c8-4,6.022,6,7.022,10
				c1,8-3.033,19-4.033,28c-1,11-0.034,23-0.034,35c0,22,0,67.133,0,67.133"/>
			<g>
				<path fill="#45A98C" d="M134.639,509.469c-6.146-28.444-4.946-57.691-4.946-86.602c0-10.671,0.396-21.4-0.342-32.052
					c-0.518-7.489-1.438-15.355-0.352-22.829c0.107-0.738,0.259-2.356,0.951-2.824c3.518-2.381,4.128,1.665,4.302,4.025
					c0.327,4.441,0.747,8.633,0.124,13.096c-0.829,5.942-2.517,11.737-3.437,17.668c-0.923,5.947-0.737,12.116-0.64,18.114
					c0.46,28.6,0.394,57.196,0.394,85.802c0,1.935,3,1.935,3,0c0-15.981,0-31.963,0-47.944c0-15.649-0.697-31.345-0.394-46.984
					c0.246-12.656,5.217-24.528,4.102-37.209c-0.532-6.052-1.255-12.562-8.966-9.157c-4.532,2.001-2.833,14.245-2.702,17.778
					c0.354,9.55,0.959,18.943,0.959,28.517c0,31.829-1.797,64.262,3.897,95.733c0.343,1.896,0.749,3.781,1.156,5.665
					C132.155,512.156,135.047,511.354,134.639,509.469L134.639,509.469z"/>
			</g>
		</g>
		<g>
			<path fill="#45A98C" d="M137.193,501.867c-2-16,7-32,10-48c2-13,0-27,4-40c4,30-9,53-14,82"/>
			<g>
				<path fill="#45A98C" d="M138.693,501.867c-1.49-14.764,5.104-28.5,8.796-42.458c3.912-14.787,0.923-30.379,5.15-45.144
					c-0.982-0.133-1.964-0.266-2.946-0.398c3.487,28.423-9.054,54.2-13.946,81.602c-0.338,1.891,2.553,2.699,2.893,0.797
					c4.94-27.668,17.574-53.701,14.054-82.398c-0.196-1.6-2.448-2.139-2.946-0.398c-4.228,14.768-1.502,30.307-5.15,45.143
					c-3.534,14.37-10.434,28.092-8.904,43.256C135.885,503.772,138.887,503.792,138.693,501.867L138.693,501.867z"/>
			</g>
		</g>
		<g>
			<path fill="#45A98C" d="M655.192,498.867c-5-18-5-38-7-57c-1-16-14-42-6-57c10,16,15,34,15,53c0,12-5,36,6,45c1-8-4-15-3-22
				c1-10,6-15,11-23c3,12-3,24-1,36c16-3,6,5,7,10c0-1-5,5-5,6s5,10,5,13"/>
			<g>
				<path fill="#45A98C" d="M656.639,498.469c-5.528-20.627-4.12-41.951-7.757-62.812c-1.441-8.265-4.103-16.296-5.935-24.478
					c-1.842-8.227-3.347-17.684,0.54-25.556c-0.863,0-1.727,0-2.59,0c10.765,17.555,15.887,37.794,14.528,58.362
					c-0.827,12.518-3.972,30.508,6.706,39.941c1.016,0.897,2.457,0.265,2.561-1.061c0.592-7.602-3.664-14.477-3-22
					c0.762-8.633,6.322-15.229,10.795-22.243c-0.913-0.119-1.827-0.238-2.741-0.358c2.585,12.005-2.645,23.909-1,36
					c0.117,0.865,1.128,1.172,1.845,1.048c2.065-0.356,5.111-1.236,7.182-0.285c0.448,0.206-0.38,2.066-0.49,2.361
					c-0.793,2.112-1.867,4.154-1.59,6.478c0.854-0.354,1.707-0.707,2.561-1.061c-0.032-0.037-0.065-0.074-0.099-0.111
					c-0.461-0.521-1.241-0.529-1.817-0.234c-1.921,0.98-5.645,5.097-5.645,7.406c0,4.415,4.596,8.464,5,13
					c0.171,1.911,3.172,1.928,3,0c-0.312-3.505-2.162-6.852-3.623-9.995c-0.708-1.523-1.629-2.459-0.801-3.748
					c0.813-1.264,2.171-3.352,3.583-4.073c-0.606-0.078-1.212-0.156-1.818-0.234c0.033,0.037,0.065,0.074,0.099,0.111
					c0.816,0.923,2.716,0.244,2.561-1.061c-0.403-3.379,2.564-6.119,2.058-9.535c-0.629-4.234-8.614-2.315-10.956-1.911
					c0.614,0.349,1.229,0.698,1.845,1.048c-1.646-12.106,3.607-23.895,1-36c-0.287-1.334-2.084-1.39-2.741-0.358
					c-4.473,7.013-9.407,13.268-10.935,21.644c-1.522,8.353,3.376,15.807,2.729,24.113c0.854-0.354,1.707-0.707,2.561-1.061
					c-11.146-9.848-5.916-30.065-5.569-43.018c0.514-19.208-5.202-38.382-15.196-54.679c-0.554-0.903-2.073-1.046-2.59,0
					c-7.374,14.934,0.864,33.627,4.312,48.562c2.369,10.265,2.512,21.065,3.312,31.534c0.904,11.803,2.152,23.598,5.225,35.059
					C654.246,501.133,657.141,500.34,656.639,498.469L656.639,498.469z"/>
			</g>
		</g>
		<g>
			<path fill="#FFFFFF" d="M181.193,320.867c-26,0-22,47,5,41c20-4,18-44-6-40"/>
			<g>
				<path fill="#45A98C" d="M181.193,319.367c-25.314,0.562-24.912,42.652-0.555,44.505c27.537,2.095,27.397-47.478-0.844-43.451
					c-1.909,0.272-1.094,3.162,0.798,2.893c23.249-3.314,23.778,38.213,0.046,37.559c-20.563-0.567-20.812-38.031,0.555-38.505
					C183.125,322.324,183.128,319.324,181.193,319.367L181.193,319.367z"/>
			</g>
		</g>
		<g>
			<path fill="#FFFFFF" d="M207.193,311.867c0,8,11,15,13,5S211.193,304.867,207.193,311.867"/>
			<g>
				<path fill="#45A98C" d="M205.693,311.867c0.143,4.526,2.887,9.021,7.124,10.825c4.473,1.907,7.838-1.135,8.823-5.427
					c1.025-4.462-0.637-9.022-5.089-10.655c-4.123-1.512-8.524,1.025-10.652,4.5c-1.013,1.654,1.582,3.16,2.591,1.514
					c1.463-2.39,4.013-3.869,6.845-3.243c3.271,0.723,3.902,4.265,3.413,7.088c-0.568,3.275-2.731,4.693-5.67,3.007
					c-2.629-1.509-4.29-4.64-4.384-7.608C208.632,309.938,205.632,309.932,205.693,311.867L205.693,311.867z"/>
			</g>
		</g>
		<g>
			<path fill="#FFFFFF" d="M192.193,277.867c0,19,20-1,2-1"/>
			<g>
				<path fill="#45A98C" d="M190.693,277.867c0.008,3.124,0.419,6.885,3.136,8.881c1.785,1.312,4.284,0.883,6.019-0.273
					c1.815-1.211,3.18-3.139,3.349-5.349c0.204-2.667-2.009-4.456-4.326-5.176c-1.496-0.465-3.12-0.579-4.678-0.583
					c-1.935-0.005-1.935,2.995,0,3c0.479,0.001,0.957,0.016,1.435,0.047c0.218,0.014,0.435,0.034,0.652,0.057
					c0.104,0.011,0.207,0.023,0.31,0.036c-0.462-0.058,0,0.003,0.094,0.018c0.699,0.112,1.391,0.288,2.049,0.551
					c-0.501-0.2-0.019-0.002,0.097,0.055c0.12,0.059,0.236,0.124,0.351,0.191c0.108,0.063,0.213,0.134,0.316,0.205
					c0.094,0.065,0.292,0.226-0.112-0.091c0.061,0.047,0.119,0.098,0.177,0.148c0.142,0.124,0.613,0.7,0.241,0.212
					c0.131,0.173,0.241,0.36,0.333,0.557c0.098,0.209-0.16-0.395-0.076-0.181c0.017,0.045,0.033,0.091,0.048,0.136
					c0.03,0.09,0.054,0.183,0.076,0.274c0.034,0.146,0.077,0.544,0.001-0.072c0.014,0.109,0.019,0.22,0.021,0.33
					c0.002,0.096-0.002,0.19-0.008,0.286c-0.003,0.048-0.008,0.096-0.013,0.143c-0.024,0.233,0.063-0.439,0.027-0.207
					c-0.032,0.211-0.086,0.418-0.15,0.62c-0.03,0.096-0.065,0.19-0.101,0.284c-0.085,0.22,0.167-0.388,0.073-0.171
					c-0.021,0.047-0.042,0.093-0.064,0.14c-0.096,0.203-0.207,0.399-0.326,0.59c-0.056,0.089-0.115,0.177-0.176,0.263
					c-0.03,0.043-0.062,0.086-0.094,0.129c-0.143,0.192,0.254-0.323,0.104-0.136c-0.144,0.182-0.3,0.354-0.462,0.52
					c-0.15,0.153-0.31,0.297-0.474,0.435c-0.318,0.267,0.272-0.199,0.009-0.004c-0.099,0.074-0.202,0.144-0.306,0.212
					c-0.176,0.115-0.358,0.219-0.545,0.313c-0.092,0.047-0.187,0.091-0.281,0.132c0.551-0.242,0.116-0.052-0.023-0.003
					c-0.189,0.065-0.384,0.115-0.58,0.155c-0.048,0.01-0.097,0.018-0.146,0.026c-0.234,0.038,0.439-0.055,0.204-0.028
					c-0.113,0.014-0.227,0.019-0.34,0.021c-0.097,0.002-0.193-0.002-0.29-0.008c-0.048-0.003-0.096-0.008-0.145-0.013
					c-0.233-0.024,0.439,0.064,0.208,0.026c-0.208-0.034-0.412-0.094-0.609-0.169c-0.218-0.083,0.389,0.17,0.175,0.073
					c-0.045-0.021-0.09-0.044-0.135-0.067c-0.091-0.047-0.179-0.101-0.265-0.155c-0.044-0.028-0.087-0.06-0.13-0.09
					c-0.195-0.139,0.322,0.256,0.134,0.104c-0.101-0.082-0.195-0.172-0.287-0.264c-0.083-0.082-0.16-0.17-0.235-0.26
					c-0.219-0.26,0.229,0.325-0.026-0.043c-0.168-0.243-0.311-0.503-0.439-0.77c-0.032-0.066-0.062-0.134-0.092-0.201
					c0.196,0.441,0.074,0.174,0.034,0.074c-0.059-0.15-0.112-0.303-0.163-0.457c-0.122-0.368-0.214-0.746-0.295-1.125
					c-0.041-0.194-0.075-0.389-0.107-0.584c-0.017-0.103-0.032-0.205-0.046-0.308c0.062,0.429,0.009,0.054,0-0.028
					c-0.059-0.506-0.091-1.014-0.111-1.522c-0.012-0.302-0.015-0.604-0.016-0.907C193.688,275.933,190.688,275.933,190.693,277.867
					L190.693,277.867z"/>
			</g>
		</g>
		<g>
			<path fill="#D6E5EA" d="M180.193,331.867c8,6,2,18,8,25c5-6,10-17,7-24c-4-8-19-15-16-1"/>
			<g>
				<path fill="#45A98C" d="M179.132,332.928c7.291,6.188,2.19,17.341,7.765,24.696c0.521,0.688,1.691,1.137,2.356,0.304
					c7.374-9.238,12.757-22.988,2.204-31.771c-2.83-2.354-6.594-4.293-10.354-3.6c-4.384,0.809-3.932,6.558-3.357,9.709
					c0.346,1.901,3.237,1.094,2.893-0.797c-1.85-10.148,7.7-4.706,11.458-0.545c6.327,7.006-0.148,18.849-4.964,24.883
					c0.785,0.102,1.57,0.202,2.356,0.304c-5.759-7.599-0.331-18.596-8.235-25.304C179.788,329.562,177.655,331.674,179.132,332.928
					L179.132,332.928z"/>
			</g>
		</g>
		<g>
			<path fill="#FFFFFF" d="M721.192,114.867c-19,6-4,32,14,22c21-11,3-30-15-23"/>
			<g>
				<path fill="#45A98C" d="M720.794,113.421c-7.53,2.612-12.306,9.621-8.671,17.458c3.655,7.881,12.258,11.372,20.446,8.797
					c8.424-2.648,16.614-10.974,12.188-20.069c-4.323-8.884-16.756-10.129-24.964-7.186c-1.808,0.648-1.028,3.547,0.797,2.893
					c7.044-2.525,15.183-1.779,20.396,4.032c6.565,7.319-2.735,14.966-9.216,17.438c-13.538,5.163-26.036-14.969-10.181-20.47
					C723.407,115.684,722.626,112.785,720.794,113.421L720.794,113.421z"/>
			</g>
		</g>
		<g>
			<g>
				<path fill="#45A98C" d="M744.746,99.266c0.824,2.621,2.252,5.405,5.032,6.329c1.909,0.634,4.079-0.176,5.35-1.667
					c1.331-1.562,1.873-3.794,1.089-5.741c-1.105-2.745-3.89-4.115-6.626-4.766c-1.881-0.448-2.679,2.445-0.797,2.893
					c1.196,0.285,2.202,0.626,3.223,1.288c0.317,0.206,0.112,0.056,0.389,0.291c0.169,0.144,0.324,0.303,0.475,0.465
					c0.285,0.308-0.009-0.056,0.219,0.28c0.129,0.19,0.235,0.395,0.332,0.604c-0.172-0.369,0.041,0.159,0.069,0.256
					c0.029,0.106,0.114,0.681,0.061,0.219c0.02,0.17,0.021,0.341,0.02,0.511c-0.002,0.068-0.005,0.135-0.011,0.203
					c-0.022,0.355,0.062-0.35,0.004,0c-0.026,0.165-0.069,0.326-0.115,0.486c-0.029,0.102-0.243,0.613-0.059,0.198
					c-0.067,0.15-0.147,0.294-0.23,0.437c-0.05,0.084-0.104,0.166-0.16,0.248c-0.193,0.285,0.215-0.259-0.002,0.008
					c-0.103,0.125-0.216,0.242-0.332,0.355c-0.075,0.074-0.503,0.407-0.14,0.137c-0.128,0.095-0.265,0.178-0.403,0.257
					c-0.056,0.031-0.111,0.06-0.169,0.088c-0.302,0.153,0.325-0.123,0.01-0.001c-0.147,0.057-0.301,0.098-0.454,0.134
					c-0.425,0.102,0.271-0.004-0.167,0.024c-0.162,0.011-0.324,0.002-0.485-0.011c0.47,0.039-0.157-0.048-0.291-0.088
					c-0.404-0.122,0.155,0.1-0.234-0.096c-0.172-0.086-0.333-0.192-0.491-0.301c-0.134-0.098-0.129-0.095,0.014,0.01
					c-0.101-0.082-0.193-0.17-0.287-0.259c-0.167-0.159-0.319-0.333-0.467-0.509c0.082,0.112,0.07,0.095-0.037-0.051
					c-0.094-0.127-0.18-0.26-0.265-0.393c-0.155-0.239-0.291-0.49-0.423-0.742c-0.317-0.604-0.542-1.244-0.746-1.893
					C747.061,96.63,744.164,97.416,744.746,99.266L744.746,99.266z"/>
			</g>
		</g>
		<g>
			<path fill="#FFFFFF" d="M624.224,274.662C635.698,245.259,667.971,252,686.617,269h-0.718c0.718-5,2.869-10.115,7.889-12.267
				c4.304,7.172,5.021,22.194,2.869,30.083c-3.586-0.717-6.454-2.887-8.605-6.472l-1.435-2.161
				c-14.344,15.061-48.05,19.396-60.959,0.749L624.224,274.662z"/>
			<g>
				<path fill="#45A98C" d="M625.67,274.986c4.971-12.167,14.883-19.34,28.139-18.946c11.675,0.347,23.093,6.364,31.748,13.872
					c0.354-0.854,0.707-1.707,1.061-2.561c-0.239,0-0.479,0-0.718,0c0.482,0.633,0.964,1.266,1.446,1.898
					c0.827-4.865,2.578-8.963,7.199-11.296c-0.684-0.179-1.368-0.358-2.052-0.538c4.558,8.22,4.947,19.987,2.718,28.965
					c0.615-0.35,1.23-0.699,1.845-1.048c-4.556-1.168-6.692-4.238-9.144-7.916c-0.528-0.794-1.646-1.023-2.355-0.304
					c-8.409,8.523-20.621,12.441-32.401,12.628c-11.176,0.178-23.723-4.268-27.485-15.552c-0.608-1.826-3.506-1.043-2.893,0.797
					c8.747,26.237,49.31,20.053,64.9,4.248c-0.785-0.102-1.57-0.202-2.355-0.304c2.913,4.371,5.61,7.93,10.937,9.295
					c0.776,0.199,1.646-0.244,1.845-1.048c2.427-9.771,1.938-22.335-3.021-31.275c-0.414-0.747-1.336-0.9-2.052-0.538
					c-5.251,2.65-7.621,7.46-8.578,13.089c-0.161,0.946,0.397,1.898,1.446,1.898c0.239,0,0.479,0,0.718,0
					c1.24,0,2.077-1.679,1.061-2.561c-9.956-8.637-22.645-14.778-36.02-14.783c-13.775-0.006-23.858,8.888-28.881,21.182
					C622.045,275.98,624.948,276.753,625.67,274.986z"/>
			</g>
		</g>
		<g>
			<path fill="#FFFFFF" d="M660.991,218.366C669.648,196.18,694,202,708.07,214h-0.542c0.542-4,2.165-7.539,5.952-9.163
				c3.247,5.412,3.788,16.794,2.164,22.747c-2.704-0.542-4.87-2.156-6.493-4.861l-1.081-1.619
				c-10.823,11.364-36.256,14.595-45.997,0.525L660.991,218.366z"/>
			<g>
				<path fill="#45A98C" d="M662.438,218.802c8.294-20.013,31.027-15.343,44.572-3.668c0.354-0.854,0.707-1.707,1.061-2.561
					c-0.181,0-0.361,0-0.542,0c0.482,0.633,0.964,1.266,1.446,1.899c0.637-3.61,1.827-6.508,5.263-8.303
					c-0.684-0.18-1.368-0.359-2.052-0.539c3.352,6.202,3.64,14.815,2.013,21.572c0.615-0.349,1.229-0.698,1.845-1.047
					c-3.309-0.914-4.884-3.111-6.678-5.804c-0.53-0.797-1.643-1.019-2.355-0.304c-10.301,10.326-38.617,15.827-44.572-2.044
					c-0.608-1.826-3.506-1.043-2.893,0.798c6.709,20.135,37.561,15.422,49.586,3.367c-0.785-0.101-1.57-0.202-2.355-0.304
					c2.279,3.423,4.349,6.045,8.471,7.183c0.769,0.212,1.653-0.253,1.845-1.047c1.823-7.571,1.44-16.936-2.315-23.884
					c-0.401-0.744-1.347-0.907-2.052-0.539c-4.036,2.109-5.869,5.717-6.642,10.096c-0.167,0.947,0.402,1.899,1.446,1.899
					c0.181,0,0.361,0,0.542,0c1.237,0,2.081-1.681,1.061-2.561c-7.701-6.638-17.378-11.303-27.698-11.257
					c-10.493,0.046-18.039,6.961-21.888,16.248C658.804,219.791,661.708,220.562,662.438,218.802z"/>
			</g>
		</g>
		<g>
			<path fill="#FFFFFF" d="M696.758,350.533c4.856-12.446,18.518-9.533,26.41-2.533h-0.304c0.304-2,1.214-4.146,3.339-5.056
				c1.821,3.035,2.125,9.462,1.215,12.802c-1.517-0.305-2.732-1.188-3.644-2.706l-0.606-0.897
				c-6.072,6.376-20.338,8.15-25.802,0.258L696.758,350.533z"/>
			<g>
				<path fill="#45A98C" d="M698.053,351.395c4.715-10.86,16.43-8.566,24.055-2.125c0.354-0.854,0.707-1.707,1.061-2.561
					c-0.102,0-0.202,0-0.304,0c0.482,0.633,0.964,1.266,1.446,1.898c0.162-1.759,1.045-3.18,2.649-4.264
					c-0.684-0.179-1.368-0.358-2.052-0.538c1.74,3.487,1.881,7.833,1.063,11.595c0.615-0.35,1.229-0.699,1.845-1.048
					c-1.889-0.598-2.481-1.645-3.354-2.954c-0.537-0.809-1.632-1.005-2.355-0.304c-5.462,5.291-20.69,8.763-23.903-0.855
					c-0.609-1.825-3.508-1.043-2.893,0.797c3.977,11.905,21.707,9.164,28.917,2.18c-0.785-0.101-1.57-0.202-2.355-0.304
					c1.416,2.129,2.66,3.546,5.146,4.333c0.748,0.237,1.676-0.271,1.845-1.048c0.998-4.588,0.751-9.663-1.366-13.905
					c-0.361-0.726-1.387-0.938-2.052-0.538c-2.423,1.457-3.463,3.303-4.028,6.057c-0.194,0.945,0.423,1.898,1.446,1.898
					c0.102,0,0.202,0,0.304,0c1.229,0,2.094-1.688,1.061-2.561c-8.998-7.602-23.236-10.006-28.766,2.732
					C694.7,351.636,697.284,353.165,698.053,351.395z"/>
			</g>
		</g>
		<g>
			<g>
				<path fill="#45A98C" d="M269.362,506.27c-4.065-12.148-8.381-24.44-15.362-35.268c-2.702-4.19-6.566-7.549-9.878-11.238
					c-4.431-4.937-5.399-10.434-4.679-16.896c0.321-2.882-4.183-2.851-4.5,0c-1.256,11.274,3.649,17.62,11.003,25.403
					c9.976,10.558,14.563,25.706,19.078,39.194C265.939,510.202,270.286,509.029,269.362,506.27L269.362,506.27z"/>
			</g>
		</g>
		<g>
			<g>
				<path fill="#45A98C" d="M269.443,495.867c0.869-8.447-0.216-18.376-3.842-26.14c-3.662-7.84-13.257-13.769-10.238-23.263
					c0.882-2.772-3.463-3.95-4.339-1.195c-2.647,8.323,1.544,13.751,6.578,19.953c6.663,8.209,8.396,20.394,7.341,30.645
					C264.646,498.753,269.149,498.725,269.443,495.867L269.443,495.867z"/>
			</g>
		</g>
		<g>
			<g>
				<path fill="#45A98C" d="M273.443,500.867c0.531-9.834-6.128-17.647-8.592-26.767c-1.407-5.204,1.049-10.842,2.887-15.636
					c1.835-4.784,2.999-9.446,2.706-14.598c-0.164-2.885-4.665-2.9-4.5,0c0.562,9.863-5.692,18.188-6,28
					c-0.325,10.344,9.573,18.385,9,29C268.786,503.769,273.287,503.753,273.443,500.867L273.443,500.867z"/>
			</g>
		</g>
		<g>
			<g>
				<path fill="#45A98C" d="M251.488,499.624c2.708-5.32,3.336-10.865,4.51-16.632c1.47-7.221,6.542-11.476,13.383-13.44
					c3.555-1.021,7.643-1.466,10.624-3.857c3.929-3.152,4.585-8.07,4.688-12.827c0.042-1.936-2.958-1.932-3,0
					c-0.132,6.118-1.566,10.47-7.675,12.375c-3.938,1.229-7.882,1.925-11.611,3.782c-11.208,5.584-8.672,19.584-13.509,29.086
					C248.022,499.83,250.61,501.349,251.488,499.624L251.488,499.624z"/>
			</g>
		</g>
		<g>
			<g>
				<path fill="#45A98C" d="M256.136,505.003c2.75-6.193,5.746-12.298,10.76-16.983c4.748-4.438,11.177-6.684,16.972-9.35
					c4.524-2.081,8.575-4.867,11.231-9.146c2.928-4.717,3.866-10.781,5.263-16.059c0.744-2.809-3.597-3.999-4.339-1.195
					c-1.39,5.251-2.342,11.008-5.245,15.685c-3.213,5.175-10.222,7.241-15.43,9.616c-11.665,5.319-17.97,13.613-23.098,25.161
					C251.083,505.358,254.96,507.65,256.136,505.003L256.136,505.003z"/>
			</g>
		</g>
		<g>
			<g>
				<path fill="#45A98C" d="M235.639,498.266c3.26-13.979,12.639-25.135,24.311-33.104c6.749-4.607,18.887-6.537,20.689-15.896
					c0.364-1.89-2.527-2.695-2.893-0.797c-1.073,5.57-7.027,7.799-11.626,9.952c-5.185,2.428-9.774,5.405-14.197,9.043
					c-9.337,7.679-16.422,18.191-19.177,30.005C232.308,499.351,235.2,500.149,235.639,498.266L235.639,498.266z"/>
			</g>
		</g>
		<g>
			<g>
				<path fill="#45A98C" d="M270.693,494.867c0.046-9.329,0.193-20.116,3.983-28.782c3.268-7.471,14.426-6.097,15.017-15.218
					c0.125-1.933-2.875-1.921-3,0c-0.335,5.17-6.662,6.036-10.265,8.433c-2.934,1.952-4.471,5.169-5.548,8.399
					c-2.828,8.482-3.143,18.3-3.187,27.168C267.683,496.802,270.683,496.801,270.693,494.867L270.693,494.867z"/>
			</g>
		</g>
		<g>
			<g>
				<path fill="#45A98C" d="M287.488,498.11c-10.204-15.777,4.814-44.089-14.538-54.538c-1.703-0.919-3.217,1.671-1.515,2.59
					c9.775,5.278,9.021,17.071,8.815,26.7c-0.194,9.096-0.489,18.821,4.646,26.762C285.944,501.242,288.542,499.74,287.488,498.11
					L287.488,498.11z"/>
			</g>
		</g>
		<g>
			<g>
				<path fill="#45A98C" d="M257.784,495.276c-9.275-8.525-15.7-19.517-20.603-31.042c-1.471-3.459-2.971-6.988-5.972-9.4
					c-3.607-2.9-8.592-3.156-13.016-3.217c-2.903-0.04-2.899,4.46,0,4.5c4.19,0.058,8.56,0.217,11.543,3.514
					c2.693,2.975,3.907,7.781,5.514,11.372c4.579,10.231,11.104,19.875,19.352,27.455
					C256.734,500.418,259.925,497.244,257.784,495.276L257.784,495.276z"/>
			</g>
		</g>
		<g>
			<path fill="#FFFFFF" d="M18.193,102.5C39.221,48.614,98.364,62,132.537,92h-1.314c1.314-9,5.256-18.415,14.456-22.357
				c7.886,13.143,9.201,40.736,5.258,55.193c-6.571-1.314-11.829-5.261-15.771-11.832l-2.629-3.945
				c-26.286,27.601-88.058,35.492-111.715,1.32L18.193,102.5z"/>
			<g>
				<path fill="#45A98C" d="M19.639,102.885C24.18,91.538,31.16,81.399,41.557,74.724c8.735-5.609,19.159-7.683,29.417-7.528
					c22.221,0.336,44.069,11.454,60.502,25.836c0.354-0.854,0.707-1.707,1.061-2.561c-0.438,0-0.876,0-1.314,0
					c0.482,0.633,0.964,1.266,1.446,1.899c1.426-9.06,5.07-17.359,13.767-21.447c-0.684-0.18-1.368-0.359-2.052-0.538
					c4.554,7.925,6.088,17.364,6.86,26.35c0.788,9.159,0.562,18.762-1.753,27.694c0.615-0.349,1.23-0.698,1.845-1.047
					c-8.657-2.008-12.882-8.15-17.503-15.083c-0.526-0.788-1.651-1.03-2.356-0.303c-15.774,16.246-39.653,23.687-61.904,23.499
					c-11.493-0.097-23.03-2.745-33.005-8.54c-4.837-2.811-9.023-6.553-12.586-10.844c-2.41-2.902-3.162-6.485-4.342-10.025
					c-0.608-1.826-3.506-1.043-2.893,0.798c0.999,2.997,1.615,6.605,3.459,9.2c3.257,4.581,7.408,8.397,11.983,11.626
					c9.792,6.911,21.937,9.878,33.738,10.652c23.97,1.571,50.733-6.802,67.67-24.245c-0.785-0.101-1.57-0.202-2.356-0.303
					c5.073,7.609,9.862,14.273,19.296,16.461c0.787,0.183,1.634-0.233,1.845-1.047c2.397-9.248,2.551-19.016,1.861-28.492
					c-0.692-9.5-2.473-19.516-7.27-27.865c-0.434-0.755-1.317-0.883-2.052-0.538c-9.338,4.389-13.605,13.454-15.146,23.24
					c-0.149,0.947,0.389,1.899,1.446,1.899c0.438,0,0.876,0,1.314,0c1.245,0,2.072-1.676,1.061-2.561
					C116.113,75.609,93.452,64.536,69.898,64.18c-25.124-0.381-44.066,15.201-53.152,37.907
					C16.027,103.885,18.93,104.658,19.639,102.885z"/>
			</g>
		</g>
		<g>
			<path fill="#FFFFFF" d="M107.565,180.942c15.865-40.66,60.493-30.942,86.278-7.942h-0.994c0.994-7,3.969-13.876,10.91-16.851
				c5.95,9.917,6.941,30.747,3.966,41.655c-4.958-0.991-8.926-3.965-11.901-8.923l-1.981-2.974
				c-19.835,20.826-66.444,26.772-84.294,0.989L107.565,180.942z"/>
			<g>
				<path fill="#45A98C" d="M109.012,181.348c6.717-16.651,20.343-26.931,38.513-26.656c16.623,0.251,32.96,8.658,45.259,19.383
					c0.354-0.854,0.707-1.707,1.061-2.561c-0.331,0-0.663,0-0.994,0c0.482,0.633,0.964,1.266,1.446,1.899
					c1.107-6.804,3.728-12.819,10.221-15.962c-0.685-0.18-1.369-0.359-2.053-0.539c6.424,11.342,6.981,28.069,3.815,40.496
					c0.615-0.349,1.23-0.698,1.845-1.047c-6.406-1.542-9.554-6.056-12.986-11.211c-0.527-0.791-1.649-1.027-2.356-0.303
					c-11.972,12.251-29.89,17.792-46.726,17.618c-8.369-0.086-16.721-2.048-24.035-6.15c-3.549-1.99-6.61-4.666-9.286-7.709
					c-2.104-2.394-2.733-5.083-3.725-8.056c-0.608-1.826-3.506-1.043-2.893,0.798c0.806,2.417,1.321,5.174,2.818,7.26
					c2.384,3.325,5.409,6.073,8.705,8.466c7.481,5.431,16.905,7.688,25.987,8.298c18.189,1.222,38.409-5.236,51.275-18.404
					c-0.785-0.101-1.57-0.202-2.356-0.303c3.909,5.869,7.547,10.848,14.779,12.589c0.783,0.188,1.639-0.237,1.845-1.047
					c3.368-13.215,2.718-30.74-4.117-42.807c-0.426-0.752-1.325-0.891-2.053-0.539c-7.131,3.452-10.372,10.215-11.599,17.755
					c-0.154,0.947,0.392,1.899,1.446,1.899c0.331,0,0.663,0,0.994,0c1.243,0,2.074-1.677,1.061-2.561
					c-13.353-11.645-30.5-20.006-48.459-20.278c-19.107-0.289-33.393,11.688-40.326,28.875
					C105.395,182.346,108.298,183.118,109.012,181.348z"/>
			</g>
		</g>
		<g>
			<path fill="#FFFFFF" d="M196.937,62.354c8.9-22.808,33.936-17.354,48.4-4.354h-0.556c0.556-4,2.225-7.885,6.119-9.554
				c3.337,5.563,3.895,17.198,2.225,23.318c-2.78-0.558-5.007-2.25-6.676-5.031l-1.112-1.682
				c-11.128,11.684-37.272,15.063-47.286,0.599L196.937,62.354z"/>
			<g>
				<path fill="#45A98C" d="M198.383,62.657c8.531-20.608,31.946-15.817,45.893-3.789c0.354-0.854,0.707-1.707,1.061-2.561
					c-0.186,0-0.371,0-0.556,0c0.482,0.633,0.964,1.266,1.446,1.899c0.656-3.723,1.887-6.711,5.43-8.561
					c-0.685-0.18-1.369-0.359-2.053-0.538c3.463,6.374,3.758,15.264,2.074,22.21c0.615-0.349,1.23-0.698,1.845-1.047
					c-3.405-0.94-5.055-3.228-6.891-5.988c-0.531-0.797-1.643-1.019-2.356-0.303c-10.615,10.652-39.755,16.278-45.893-2.12
					c-0.609-1.825-3.507-1.043-2.893,0.798c6.893,20.659,38.57,15.823,50.907,3.443c-0.785-0.101-1.57-0.202-2.356-0.303
					c2.327,3.496,4.464,6.201,8.684,7.366c0.77,0.212,1.653-0.254,1.845-1.047c1.878-7.748,1.484-17.417-2.375-24.522
					c-0.404-0.743-1.346-0.907-2.053-0.538c-4.141,2.163-6.017,5.862-6.808,10.354c-0.167,0.947,0.402,1.899,1.446,1.899
					c0.186,0,0.371,0,0.556,0c1.238,0,2.081-1.681,1.061-2.561c-7.777-6.708-17.48-11.411-27.886-11.568
					c-10.991-0.166-18.99,6.945-23.021,16.681C194.75,63.647,197.654,64.418,198.383,62.657z"/>
			</g>
		</g>
		<g>
			<g>
				<path fill="#45A98C" d="M259.988,483.61c-7.942-17.721-19.618-37.322-15.614-57.499c1.852-9.33,7.52-17.998,11.487-26.545
					c3.865-8.324,6.411-16.966,6.332-26.199c-0.017-1.934-3.017-1.936-3,0c0.18,21.091-16.131,36.511-18.458,56.786
					c-2.206,19.217,9.111,38.121,16.663,54.971C258.188,486.887,260.772,485.36,259.988,483.61L259.988,483.61z"/>
			</g>
		</g>
		<g>
			<g>
				<path fill="#45A98C" d="M262.639,477.969c-2.494-7.455-3.726-15.219-6.875-22.459c-3.495-8.036-8.516-15.03-10.878-23.599
					c-5.093-18.477,3.337-40.031,10.602-56.787c0.761-1.756-1.823-3.285-2.591-1.514c-7.249,16.721-13.896,35.246-11.902,53.778
					c0.843,7.834,4.408,14.972,8.052,21.828c2.483,4.672,4.907,9.166,6.488,14.249c1.573,5.057,2.529,10.271,4.212,15.3
					C260.357,480.591,263.255,479.809,262.639,477.969L262.639,477.969z"/>
			</g>
		</g>
		<g>
			<g>
				<path fill="#45A98C" d="M277.193,469.367c0.366-17.244-12.377-29.686-23.532-41.201c-6.844-7.067-13.718-14.339-16.694-23.949
					c-3.524-11.385,3.947-21.575,10.521-30.093c1.182-1.531-1.427-3.022-2.591-1.514c-5.766,7.47-11.394,15.338-11.818,25.083
					c-0.394,9.046,5.078,17.378,10.6,24.039c11.868,14.316,30.953,26.984,30.514,47.635
					C274.152,471.303,277.152,471.299,277.193,469.367L277.193,469.367z"/>
			</g>
		</g>
		<g>
			<g>
				<path fill="#45A98C" d="M257.193,477.867c-0.383-7.717,5.834-13.881,9.745-19.963c4.011-6.238,5.158-13.773,6.114-20.996
					c1.089-8.229,1.156-16.768-0.218-24.96c-1.399-8.343-5.054-16.192-8.194-23.979c-0.714-1.771-3.617-0.998-2.893,0.797
					c2.955,7.33,6.071,14.564,7.856,22.291c2.156,9.333,1.419,19.637-0.004,29.022c-1.226,8.086-3.852,14.504-8.53,21.143
					c-3.547,5.035-7.194,10.22-6.875,16.646C254.289,479.792,257.289,479.802,257.193,477.867L257.193,477.867z"/>
			</g>
		</g>
		<g>
			<g>
				<path fill="#45A98C" d="M278.693,489.867c-0.95-15.769-6.52-30.602-12.789-44.947c-3.362-7.691-7.227-15.18-10.305-22.991
					c-2.638-6.692-0.37-11.293,2.89-17.305c0.922-1.7-1.668-3.215-2.591-1.514c-2.322,4.283-5.387,9.12-4.652,14.229
					c0.976,6.785,4.865,13.329,7.705,19.466c7.776,16.807,15.614,34.324,16.743,53.062
					C275.809,491.789,278.81,491.801,278.693,489.867L278.693,489.867z"/>
			</g>
		</g>
		<g>
			<g>
				<path fill="#45A98C" d="M276.193,485.367c0.184-12.953,4.204-25.227,6.473-37.876c1.491-8.312,2.028-16.363-3.444-23.296
					c-2.288-2.898-5.589-5.043-8.67-6.992c-3.108-1.965-10.86-4.945-11.154-9.241c-0.27-3.95,5.172-9.254,7.387-12.152
					c3.172-4.15,5.699-8.414,6.855-13.544c0.425-1.884-2.468-2.685-2.893-0.797c-2.232,9.909-11.925,15.738-14.22,25.305
					c-1.618,6.743,9.455,11.088,13.628,13.727c3.736,2.363,7.004,5.188,9.071,9.144c2.938,5.624,1.28,12.968,0.231,18.813
					c-2.217,12.357-6.084,24.249-6.264,36.91C273.166,487.303,276.166,487.3,276.193,485.367L276.193,485.367z"/>
			</g>
		</g>
		<g>
			<g>
				<path fill="#45A98C" d="M260.988,479.124c3.474-5.801,4.829-12.731,6.415-19.222c1.998-8.175,4.75-15.956,7.541-23.89
					c3.11-8.842,6.73-18.078,6.899-27.551c0.169-9.476-3.458-18.614-3.651-28.095c-0.039-1.932-3.04-1.936-3,0
					c0.171,8.42,2.655,16.445,3.499,24.781c0.977,9.652-2.925,19.272-6.007,28.248c-2.608,7.598-5.505,15.039-7.468,22.838
					c-1.795,7.129-2.992,14.986-6.819,21.376C257.401,479.274,259.996,480.781,260.988,479.124L260.988,479.124z"/>
			</g>
		</g>
		<g>
			<g>
				<path fill="#45A98C" d="M269.822,491.958c10.629-22.929,8.155-47.198,1.004-70.75c-3.724-12.266-9.454-24.005-12.304-36.509
					c-3.051-13.385-0.666-26.871,7.3-38.075c1.124-1.58-1.48-3.076-2.591-1.514c-6.396,8.996-9.297,19.186-8.957,30.192
					c0.379,12.255,5.64,23.535,9.707,34.879c9.337,26.045,15.402,54.047,3.25,80.263
					C266.423,492.188,269.009,493.712,269.822,491.958L269.822,491.958z"/>
			</g>
		</g>
		<g>
			<g>
				<path fill="#45A98C" d="M260.617,493.906c-7.124-3.854-10.46-12.139-12.523-19.544c-2.313-8.302-2.996-17.6-0.982-26.027
					c3.74-15.646,23.92-21.675,21.581-39.802c-1.404-10.883-27.803-33.03-7.487-39.528c5.976-1.911,7.313-6.071,5.022-11.921
					c-2.983-7.617-12.727-9.343-14.921-17.615c-0.496-1.868-3.389-1.075-2.893,0.797c2.187,8.242,10.324,10.351,14.571,16.997
					c1.187,1.856,2.256,5.479,0.625,7.351c-0.886,1.018-2.726,1.347-3.957,1.74c-2.665,0.853-4.898,2.066-6.583,4.373
					c-4.406,6.033-2.377,12.396,1.185,18.302c4.776,7.919,12.25,14.618,11.621,24.581c-0.566,8.959-9.298,15.518-14.749,21.744
					c-5.161,5.896-7.512,12.264-8.055,20.012c-0.951,13.57,2.873,34.012,16.031,41.131
					C260.804,497.417,262.319,494.827,260.617,493.906L260.617,493.906z"/>
			</g>
		</g>
	</g>
</g>
<g id="white">
</g>
</svg>
