<?xml version="1.0" encoding="utf-8"?>
<!-- Generator: Adobe Illustrator 16.0.0, SVG Export Plug-In . SVG Version: 6.00 Build 0)  -->
<!DOCTYPE svg PUBLIC "-//W3C//DTD SVG 1.1//EN" "http://www.w3.org/Graphics/SVG/1.1/DTD/svg11.dtd">
<svg version="1.1" id="Layer_1" xmlns="http://www.w3.org/2000/svg" xmlns:xlink="http://www.w3.org/1999/xlink" x="0px" y="0px"
	 width="3128px" height="834.744px" viewBox="0 0 3128 834.744" enable-background="new 0 0 3128 834.744" xml:space="preserve">
<g>
	<g>
		<g>
			<polygon fill="#FFFFFF" points="1982.553,770.813 1841.008,747.485 1699.332,731.979 1558.752,708.547 1417.072,693.039 
				1277.387,669.968 1284.63,595.931 1298.993,521.092 1305.431,445.156 1319.794,370.311 1327.521,292.77 1469.066,316.097 
				1610.742,331.603 1751.322,355.035 1893.002,370.542 2032.688,393.613 2025.444,467.65 2011.081,542.49 2004.644,618.426 
				1990.279,693.283 			"/>
			<g>
				<path fill="#45A98E" d="M1984.547,763.58c-46.443-7.653-92.887-15.308-139.33-22.962c-17.036-2.808-34.46-3.943-51.613-5.821
					c-28.738-3.145-57.476-6.29-86.214-9.436c-2.576-0.282-5.153-0.564-7.729-0.846c-1.424-0.156,2.84,0.428,1.225,0.158
					c-1.005-0.167-2.009-0.335-3.013-0.502c-10.61-1.769-21.221-3.537-31.831-5.306c-29.97-4.996-59.94-9.991-89.91-14.987
					c-13.544-2.257-26.987-3.884-40.644-5.379c-30.682-3.357-61.364-6.717-92.046-10.074c-8.546-0.936-17.092-1.871-25.639-2.807
					c-1.965-0.215,1.599,0.243,1.117,0.164c-0.794-0.132-1.588-0.263-2.381-0.394c-3.875-0.64-7.75-1.28-11.625-1.92
					c-29.772-4.918-59.546-9.835-89.318-14.753c-12.072-1.993-24.144-3.987-36.215-5.981c1.835,2.411,3.671,4.821,5.506,7.232
					c2.337-23.89,4.675-47.779,7.012-71.669c0.104-1.064,0.755-4.499-0.033-0.392c0.194-1.013,0.389-2.026,0.584-3.04
					c1.082-5.643,2.165-11.284,3.248-16.927c2.886-15.036,5.771-30.072,8.657-45.108c4.082-21.269,4.8-43.132,6.627-64.688
					c0.523-6.167,1.046-12.333,1.568-18.5c0.115-1.356,0.23-2.713,0.346-4.069c0.098-1.155-0.546,3.209,0.018,0.272
					c2.404-12.528,4.808-25.056,7.212-37.583c3.242-16.894,6.728-33.525,8.433-50.633c2.154-21.62,4.31-43.241,6.464-64.861
					c-3.165,2.41-6.329,4.821-9.494,7.232c46.443,7.653,92.887,15.308,139.33,22.962c17.036,2.808,34.46,3.943,51.613,5.821
					c28.738,3.145,57.476,6.29,86.214,9.436c2.576,0.282,5.153,0.564,7.729,0.846c1.424,0.156-2.84-0.428-1.225-0.158
					c1.005,0.167,2.009,0.335,3.013,0.502c10.61,1.769,21.221,3.537,31.831,5.306c29.97,4.996,59.94,9.991,89.91,14.987
					c13.544,2.257,26.987,3.884,40.644,5.379c30.683,3.357,61.364,6.716,92.046,10.074c8.546,0.935,17.092,1.87,25.639,2.806
					c1.965,0.215-1.599-0.243-1.117-0.164c0.794,0.132,1.588,0.263,2.381,0.394c3.875,0.641,7.75,1.28,11.625,1.92
					c29.772,4.918,59.546,9.835,89.318,14.753c12.072,1.993,24.144,3.987,36.215,5.981c-1.835-2.411-3.67-4.822-5.506-7.232
					c-2.337,23.89-4.674,47.779-7.012,71.67c-0.104,1.063-0.755,4.498,0.033,0.391c-0.194,1.014-0.389,2.026-0.584,3.04
					c-1.082,5.643-2.165,11.284-3.248,16.927c-2.886,15.036-5.771,30.072-8.657,45.109c-4.082,21.269-4.8,43.132-6.628,64.688
					c-0.522,6.167-1.045,12.333-1.567,18.5c-0.115,1.356-0.23,2.713-0.346,4.069c-0.098,1.155,0.546-3.209-0.018-0.272
					c-2.404,12.53-4.809,25.06-7.213,37.59c-3.241,16.895-6.728,33.527-8.433,50.636c-2.154,21.617-4.309,43.234-6.463,64.852
					c-0.406,4.076,3.719,7.5,7.5,7.5c4.395,0,7.095-3.434,7.5-7.5c2.428-24.365,4.856-48.729,7.284-73.095
					c0.134-1.341,0.268-2.682,0.401-4.021c0.113-1.138-0.54,3.211,0.023,0.277c0.925-4.819,1.85-9.639,2.774-14.457
					c2.923-15.237,5.847-30.474,8.771-45.711c4.034-21.023,5.119-42.304,6.928-63.632c0.576-6.804,1.153-13.606,1.73-20.41
					c0.159-1.883,0.319-3.768,0.479-5.65c0.211-2.485,0.097-0.811-0.079,0.105c2.158-11.247,4.317-22.495,6.476-33.742
					c3.334-17.369,7.303-34.636,9.026-52.246c2.106-21.539,4.214-43.078,6.321-64.617c0.297-3.029-2.484-6.733-5.506-7.232
					c-46.063-7.607-92.126-15.216-138.188-22.823c-17.728-2.929-35.894-4.062-53.744-6.016c-28.262-3.094-56.523-6.187-84.785-9.28
					c-2.187-0.239-4.372-0.479-6.559-0.718c4.62,0.506-1.467-0.304-2.612-0.495c-11.13-1.855-22.261-3.71-33.392-5.565
					c-29.721-4.954-59.441-9.908-89.162-14.862c-13.669-2.278-27.294-3.81-41.077-5.318c-30.689-3.358-61.379-6.718-92.068-10.076
					c-7.899-0.865-15.8-1.729-23.699-2.594c-1.423-0.156,2.836,0.425,1.229,0.16c-0.993-0.164-1.986-0.328-2.979-0.491
					c-4.151-0.685-8.304-1.368-12.455-2.053c-29.949-4.936-59.898-9.871-89.848-14.808c-11.942-1.968-23.885-3.936-35.826-5.904
					c-5.127-0.845-8.978,2.045-9.494,7.232c-2.429,24.368-4.857,48.737-7.285,73.105c-0.134,1.341-0.268,2.682-0.401,4.022
					c-0.113,1.138,0.54-3.211-0.023-0.277c-0.925,4.818-1.849,9.637-2.773,14.455c-2.924,15.234-5.848,30.469-8.771,45.703
					c-4.034,21.022-5.118,42.303-6.927,63.63c-0.576,6.804-1.153,13.606-1.73,20.41c-0.159,1.883-0.319,3.768-0.479,5.65
					c-0.211,2.485-0.097,0.811,0.079-0.105c-2.158,11.247-4.317,22.494-6.476,33.742c-3.334,17.369-7.303,34.635-9.026,52.245
					c-2.106,21.539-4.214,43.078-6.321,64.617c-0.297,3.029,2.484,6.733,5.506,7.232c46.063,7.607,92.126,15.216,138.188,22.823
					c17.728,2.929,35.894,4.063,53.744,6.016c28.262,3.094,56.523,6.188,84.785,9.281c2.187,0.239,4.372,0.479,6.559,0.718
					c-4.62-0.506,1.467,0.304,2.612,0.495c11.13,1.855,22.261,3.71,33.392,5.565c29.721,4.954,59.441,9.908,89.162,14.862
					c13.669,2.278,27.294,3.81,41.077,5.318c30.689,3.358,61.379,6.718,92.068,10.076c7.899,0.865,15.8,1.729,23.699,2.594
					c1.423,0.156-2.836-0.425-1.229-0.16c0.993,0.164,1.986,0.328,2.979,0.491c4.151,0.685,8.304,1.368,12.455,2.053
					c29.949,4.936,59.898,9.871,89.848,14.808c11.942,1.968,23.885,3.936,35.826,5.904
					C1990.019,779.604,1994.073,765.15,1984.547,763.58z"/>
			</g>
		</g>
		<g>
			<g>
				<path fill="#45A98E" d="M1322.786,304.037c11.159,21.396,32.795,36.021,51.293,50.548
					c22.335,17.539,41.465,38.505,61.401,58.647c21.693,21.916,44.077,43.192,66.385,64.481
					c21.572,20.588,43.737,40.563,66.79,59.485c22.202,18.223,45.287,35.387,69.321,51.119c8.119,5.315,15.627-7.678,7.57-12.951
					c-50.021-32.744-95.23-71.905-138.283-113.245c-22.357-21.469-44.788-42.873-66.557-64.942
					c-11.192-11.347-22.323-22.752-33.639-33.976c-8.438-8.367-17.814-15.662-27.163-22.97
					c-15.955-12.472-34.579-25.384-44.168-43.768C1331.263,287.888,1318.318,295.473,1322.786,304.037L1322.786,304.037z"/>
			</g>
		</g>
		<g>
			<g>
				<path fill="#45A98E" d="M2018.69,390.792c-43.005,33.743-95.825,52.287-144.276,76.479
					c-22.347,11.158-43.774,24.071-66.015,35.46c-24.134,12.357-48.574,24.11-72.964,35.95
					c-26.215,12.727-52.496,25.396-78.082,39.357c-8.492,4.635-0.923,17.587,7.57,12.953
					c45.698-24.936,93.297-46.265,139.806-69.612c22.296-11.193,43.852-23.604,65.866-35.301
					c24.176-12.843,49.347-23.71,74.105-35.354c29.621-13.93,58.756-29.052,84.597-49.326c3.222-2.528,2.629-7.978,0-10.607
					C2026.148,387.644,2021.904,388.271,2018.69,390.792L2018.69,390.792z"/>
			</g>
		</g>
		<g>
			<g>
				<path fill="#45A98E" d="M1980.397,759.937c-16.968-21.006-37.556-38.558-58.363-55.615
					c-20.912-17.144-41.582-34.203-60.742-53.322c-37.731-37.649-72.57-78.702-113.956-112.51c-3.163-2.583-7.501-3.105-10.607,0
					c-2.672,2.673-3.17,8.018,0,10.607c41.375,33.798,76.293,74.808,113.957,112.509c18.713,18.732,38.912,35.479,59.395,52.219
					c21.276,17.389,42.38,35.264,59.71,56.72c2.573,3.185,7.946,2.66,10.607,0C1983.516,767.426,1982.963,763.114,1980.397,759.937
					L1980.397,759.937z"/>
			</g>
		</g>
		<g>
			<g>
				<path fill="#45A98E" d="M1292.98,668.492c89.623-43.374,180.709-84.283,266.377-135.275c8.302-4.941,0.762-17.912-7.57-12.953
					c-85.669,50.993-176.755,91.902-266.377,135.275C1276.704,659.753,1284.314,672.686,1292.98,668.492L1292.98,668.492z"/>
			</g>
		</g>
		<g>
			<path fill="#D4E3E8" d="M1573.154,549.351c34.22-69.198,99.884-42.113,133.609,4.009l-1.499-0.207
				c3.208-12.186,9.466-23.933,20.794-27.78c6.638,18.937,3.022,56.305-4.206,75.134c-7.317-2.81-12.641-8.956-15.959-18.426
				l-2.303-5.722c-35.386,32.979-107.981,33.771-128.873-15.977L1573.154,549.351z"/>
			<g>
				<path fill="#45A98E" d="M1578.335,552.379c6.634-13.201,15.41-25.408,28.418-32.9c9.876-5.688,21.673-7.244,32.834-5.413
					c25.188,4.133,47.218,22.302,61.996,42.322c2.259-2.938,4.517-5.876,6.775-8.813c-0.499-0.069-0.999-0.139-1.499-0.207
					c1.397,2.46,2.794,4.92,4.191,7.38c2.531-9.244,6.891-19.958,16.603-23.589c-2.46-1.397-4.92-2.794-7.38-4.191
					c3.853,11.479,3.661,24.071,2.882,36.013c-0.791,12.128-2.814,24.513-7.089,35.932c2.461-1.397,4.921-2.794,7.381-4.19
					c-8.282-3.442-11.003-12.335-14.07-19.957c-1.688-4.195-6.447-5.936-10.029-2.648c-19.247,17.668-48.063,24.838-73.578,20.252
					c-12.452-2.238-24.227-7.565-33.396-16.371c-4.892-4.699-8.59-10.331-11.497-16.433c-1.276-2.68-1.413-8.12-1.937-11.808
					c-0.459-3.244-4.535-4.974-7.38-4.191c-3.452,0.95-4.649,4.146-4.19,7.381c0.646,4.566,0.816,9.328,2.647,13.578
					c3.075,7.133,7.706,13.608,13.089,19.178c10.462,10.824,24.845,17.406,39.474,20.237c29.717,5.751,62.861-2.782,85.255-23.337
					c-3.344-0.883-6.686-1.766-10.029-2.648c4.907,12.191,9.538,22.972,22.453,28.338c3.213,1.336,6.35-1.436,7.381-4.19
					c4.653-12.435,6.545-25.941,7.517-39.121c0.95-12.882,0.841-26.834-3.312-39.202c-0.967-2.883-4.192-5.383-7.38-4.191
					c-14.027,5.244-21.2,18.152-24.985,31.972c-0.776,2.837,0.942,6.932,4.191,7.38c0.499,0.069,0.999,0.139,1.499,0.207
					c4.471,0.618,10.34-3.984,6.775-8.813c-17.071-23.127-41.992-43.832-71.243-48.16c-13.875-2.054-27.678,0.166-40.005,6.946
					c-14.759,8.118-25.303,22.439-32.723,37.205C1564.509,553.217,1574.86,559.295,1578.335,552.379z"/>
			</g>
		</g>
	</g>
	<g>
		<g>
			<polygon fill="#FFFFFF" points="1150.125,551.938 1290.69,535.089 1431.061,510.423 1572.593,493.672 1712.968,469.005 
				1855.404,451.882 1841.176,375.276 1834.071,299.402 1819.052,224.69 1811.945,148.811 1798.229,75.686 1657.663,92.534 
				1517.293,117.2 1375.761,133.951 1235.386,158.618 1092.949,175.741 1107.178,252.347 1114.283,328.221 1129.302,402.934 
				1136.41,478.824 			"/>
			<g>
				<path fill="#45A98E" d="M1150.125,559.438c46.353-5.556,92.706-11.112,139.059-16.668c17.844-2.139,35.598-6.089,53.289-9.197
					c28-4.92,56.001-9.841,84.001-14.761c2.167-0.381,4.333-0.762,6.499-1.143c-4.571,0.804,1.48-0.147,2.641-0.285
					c11.207-1.326,22.413-2.652,33.619-3.979c29.922-3.542,59.844-7.083,89.766-10.624c13.764-1.629,27.273-3.931,40.934-6.331
					c30.407-5.343,60.815-10.687,91.223-16.03c7.828-1.375,15.655-2.75,23.482-4.126c1.409-0.247-2.846,0.353-1.229,0.158
					c0.999-0.12,1.998-0.24,2.998-0.36c4.178-0.502,8.355-1.005,12.533-1.507c30.138-3.623,60.276-7.246,90.414-10.869
					c12.018-1.444,24.034-2.89,36.052-4.334c5.087-0.611,8.197-4.298,7.232-9.494c-4.472-24.074-8.943-48.148-13.415-72.224
					c-0.246-1.324-0.492-2.649-0.738-3.974c-0.209-1.128,0.348,3.241,0.068,0.265c-0.457-4.885-0.914-9.77-1.372-14.653
					c-1.445-15.444-2.892-30.888-4.338-46.332c-1.996-21.318-6.862-42.044-11.082-63.036c-1.346-6.693-2.691-13.387-4.037-20.08
					c-0.373-1.854-0.745-3.707-1.118-5.561c-0.489-2.438-0.166-0.813-0.078,0.129c-1.067-11.404-2.136-22.808-3.204-34.212
					c-1.648-17.603-2.629-35.311-5.89-52.697c-3.991-21.273-7.981-42.547-11.972-63.821c-0.557-2.965-4.165-5.873-7.232-5.506
					c-46.353,5.556-92.706,11.112-139.059,16.668c-17.844,2.139-35.598,6.089-53.289,9.197c-28,4.92-56.001,9.841-84.001,14.761
					c-2.167,0.381-4.333,0.762-6.499,1.143c4.571-0.804-1.48,0.147-2.641,0.285c-11.207,1.326-22.413,2.652-33.619,3.979
					c-29.922,3.542-59.844,7.083-89.766,10.624c-13.764,1.629-27.273,3.931-40.934,6.331c-30.407,5.343-60.815,10.687-91.223,16.03
					c-7.828,1.375-15.655,2.75-23.482,4.126c-1.409,0.247,2.846-0.353,1.229-0.158c-0.999,0.12-1.998,0.24-2.998,0.36
					c-4.178,0.502-8.355,1.005-12.533,1.507c-30.138,3.623-60.276,7.246-90.414,10.869c-12.018,1.444-24.034,2.89-36.052,4.334
					c-5.087,0.611-8.197,4.298-7.232,9.494c4.472,24.074,8.943,48.148,13.415,72.224c0.246,1.324,0.492,2.649,0.738,3.974
					c0.209,1.128-0.348-3.241-0.068-0.265c0.457,4.885,0.915,9.77,1.372,14.653c1.446,15.444,2.893,30.888,4.339,46.332
					c1.996,21.318,6.862,42.045,11.082,63.036c1.345,6.693,2.69,13.388,4.036,20.081c0.373,1.854,0.745,3.707,1.118,5.561
					c0.489,2.438,0.166,0.813,0.078-0.128c1.068,11.405,2.137,22.811,3.205,34.216c1.648,17.604,2.629,35.313,5.891,52.701
					c3.99,21.271,7.98,42.541,11.97,63.812c1.782,9.499,16.237,5.465,14.465-3.988c-4.426-23.592-8.852-47.184-13.276-70.775
					c-0.194-1.036-0.564-4.543-0.173-0.361c-0.096-1.027-0.192-2.055-0.288-3.083c-0.536-5.722-1.072-11.442-1.608-17.164
					c-1.428-15.247-2.856-30.495-4.284-45.742c-2.021-21.57-7.4-42.755-11.666-63.974c-1.22-6.066-2.439-12.134-3.659-18.201
					c-0.268-1.335-0.536-2.67-0.805-4.004c-0.229-1.142,0.341,3.24,0.062,0.261c-1.189-12.7-2.378-25.399-3.567-38.1
					c-1.604-17.119-2.87-34.077-6.009-50.974c-3.967-21.359-7.935-42.719-11.901-64.079c-2.411,3.165-4.821,6.329-7.232,9.494
					c46.736-5.618,93.472-11.236,140.208-16.855c17.146-2.062,34.19-5.802,51.191-8.789c28.474-5.003,56.948-10.007,85.422-15.011
					c2.554-0.448,5.106-0.896,7.659-1.346c1.41-0.248-2.852,0.351-1.225,0.158c1.011-0.119,2.022-0.239,3.033-0.359
					c10.682-1.264,21.364-2.528,32.046-3.792c30.173-3.571,60.347-7.143,90.52-10.714c44.171-5.228,87.935-14.48,131.728-22.176
					c8.467-1.488,16.935-2.977,25.401-4.464c1.946-0.342-1.604,0.181-1.123,0.123c0.799-0.096,1.598-0.191,2.396-0.287
					c3.899-0.468,7.799-0.935,11.698-1.402c29.96-3.591,59.921-7.183,89.881-10.773c12.148-1.456,24.296-2.912,36.443-4.368
					c-2.41-1.836-4.821-3.671-7.232-5.506c4.427,23.596,8.853,47.19,13.278,70.786c0.194,1.037,0.564,4.544,0.173,0.362
					c0.096,1.027,0.192,2.055,0.288,3.082c0.536,5.721,1.071,11.441,1.607,17.162c1.428,15.245,2.855,30.49,4.283,45.736
					c2.021,21.569,7.401,42.752,11.667,63.971c1.219,6.067,2.438,12.135,3.658,18.201c0.269,1.335,0.537,2.67,0.806,4.004
					c0.229,1.142-0.341-3.24-0.062-0.261c1.188,12.7,2.378,25.399,3.567,38.1c1.603,17.119,2.869,34.077,6.008,50.974
					c3.967,21.359,7.935,42.719,11.901,64.079c2.411-3.165,4.822-6.329,7.232-9.494c-46.736,5.618-93.472,11.236-140.208,16.855
					c-17.147,2.062-34.19,5.802-51.191,8.789c-28.474,5.003-56.948,10.007-85.422,15.011c-2.554,0.448-5.106,0.896-7.659,1.346
					c-1.41,0.248,2.852-0.351,1.225-0.158c-1.011,0.119-2.022,0.239-3.033,0.359c-10.682,1.264-21.364,2.528-32.046,3.792
					c-30.173,3.571-60.347,7.143-90.52,10.714c-44.171,5.228-87.935,14.48-131.728,22.176c-8.467,1.488-16.935,2.977-25.401,4.464
					c-1.946,0.342,1.604-0.181,1.123-0.123c-0.799,0.096-1.598,0.191-2.396,0.287c-3.899,0.468-7.799,0.935-11.698,1.402
					c-29.96,3.591-59.921,7.183-89.881,10.773c-12.148,1.456-24.296,2.912-36.443,4.368c-4.058,0.486-7.5,3.044-7.5,7.5
					C1142.625,555.657,1146.056,559.925,1150.125,559.438z"/>
			</g>
		</g>
		<g>
			<g>
				<path fill="#45A98E" d="M1562.447,357.506c3.604-4.168,8.104-10.902,13.659-12.065c4.537-0.95,13.042,3.886,17.574,5.531
					c7.243,2.63,14.933,5.572,22.763,4.091c8.446-1.598,15.976-7.379,20.734-14.344c1.673-2.448,3.433-6.508,6.781-6.867
					c3.442-0.369,7.09,1.232,10.157,2.593c7.79,3.452,15.07,7.931,23.733,8.686c19.49,1.698,36.801-13.119,55.519-16.177
					c7.623-1.244,4.378-12.807-3.189-11.57c-9.549,1.559-18.339,5.493-27.167,9.286c-8.016,3.444-18.074,8.043-27.008,6.155
					c-14.792-3.125-32.133-20.482-45.244-3.802c-4.852,6.172-9.168,13.875-18.031,14.459c-7.971,0.524-16.85-4.499-24.114-7.19
					c-5.641-2.09-11.883-3.936-17.799-1.83c-7.05,2.511-12.138,9.104-16.854,14.561
					C1548.928,354.844,1557.378,363.371,1562.447,357.506L1562.447,357.506z"/>
			</g>
		</g>
		<g>
			<g>
				<path fill="#45A98E" d="M1567.795,401.145c0.481-3.823,1.94-7.18,4.107-10.327c-3.141,0.405-6.282,0.81-9.424,1.214
					c5.709,4.958,12.144,9.415,20.058,8.765c7.508-0.616,14.659-4.893,21.537-7.644c16.451-6.581,34.931-5.536,52.075-9.377
					c9.869-2.212,19.604-5.167,29.655-6.491c7.913-1.042,15.966-1.357,23.908-2.277c15.386-1.782,34.647-5.37,49.136,1.922
					c6.893,3.47,12.971-6.882,6.057-10.361c-14.645-7.371-31.893-6.021-47.697-4.396c-17.502,1.799-35.074,2.962-52.207,7.114
					c-9.897,2.398-19.607,4.427-29.687,5.852c-7.592,1.072-15.265,1.399-22.796,2.91c-8.466,1.699-16.317,5.484-24.234,8.79
					c-2.479,1.035-5.034,2.022-7.742,2.052c-3.593,0.039-7.075-3.17-9.576-5.342c-3.063-2.659-7.133-2.113-9.424,1.214
					c-3.434,4.986-4.998,10.438-5.746,16.384C1554.83,408.809,1566.842,408.716,1567.795,401.145L1567.795,401.145z"/>
			</g>
		</g>
		<g>
			<g>
				<path fill="#45A98E" d="M1575.597,446.641c13.449-9.055,28.89-7.213,44.105-10.363c7.308-1.514,13.94-6.654,21.402-6.925
					c8.266-0.3,16.394,1.653,24.406-1.271c7.209-2.63,4.097-14.229-3.189-11.57c-7.683,2.803-16.15,0.206-24.182,1.046
					c-7.603,0.794-14.2,5.434-21.628,7.147c-7.565,1.747-15.398,1.729-23.07,2.747c-8.681,1.152-16.608,3.917-23.901,8.827
					C1563.159,440.575,1569.157,450.977,1575.597,446.641L1575.597,446.641z"/>
			</g>
		</g>
		<g>
			<path fill="#D4E3E8" d="M1624.962,147.539c2.198,43.109,13.146,87.455,21.416,129.668c41.047-2.081,85.771-5.254,125.115-18.931
				c-1.98-43.907-6.446-86.097-14.974-130.065C1713.164,128.66,1669.489,140.997,1624.962,147.539"/>
			<g>
				<path fill="#45A98E" d="M1618.962,147.539c2.395,44.424,13.076,87.765,21.63,131.263c0.491,2.497,3.285,4.533,5.786,4.405
					c42.616-2.175,86.061-5.193,126.71-19.145c2.457-0.844,4.532-3.016,4.405-5.786c-2.031-44.196-6.813-88.203-15.188-131.66
					c-0.494-2.566-3.28-4.44-5.785-4.405c-45.063,0.643-88.814,12.945-133.152,19.543c-7.633,1.135-4.377,12.697,3.189,11.57
					c43.284-6.439,85.975-18.486,129.963-19.113c-1.929-1.469-3.857-2.937-5.785-4.405c8.174,42.419,12.775,85.333,14.759,128.471
					c1.468-1.929,2.937-3.857,4.405-5.786c-39.7,13.626-81.902,16.594-123.521,18.717c1.929,1.469,3.857,2.937,5.786,4.405
					c-8.348-42.444-18.866-84.728-21.202-128.073C1630.547,139.844,1618.545,139.803,1618.962,147.539L1618.962,147.539z"/>
			</g>
		</g>
		<g>
			<path fill="#FFFFFF" d="M1668.526,241.714c5.416-2.728,10.821-7.092,15.429-10.615c3.661-2.798,13.954-9.392,16.787-11.103
				c3.818,4.159,14.813,16.279,22.688,24.57c0.488,0.513,0.965,1.012,1.427,1.494c0,0,4.293,2.869,2.221-4.621
				c-1.261-4.566-5.488-24.474-8.318-31.315c6.375-3.113,21.58-10.436,25.406-12.302c0.97-0.535,3.197-1.105,4.378-2.781
				c2.07-2.936-1.801-3.979-1.801-3.979c-3.177-0.083-5.262-0.238-9.545-0.352c-7.202-0.187-15.694-0.06-22.995-0.446
				c0,0-3.131-13.324-4.149-18.627c-0.879-4.585-1.58-9.433-2.996-13.708c-1.18-3.561-3.933-0.565-3.933-0.565
				c-1.541,5.121-3.332,11.364-4.033,14.183c-1.986,7.979-4.213,11.03-6.788,17.485c-10.547-1.15-35.866-5.631-36.803-4.092
				c-1.181,1.941-0.15,3.267-0.15,3.267c9.509,7.251,25.374,15.992,30.411,19.841c-6.947,10.117-14.64,20.497-19.853,31.729
				C1665.909,239.775,1665.521,243.225,1668.526,241.714z"/>
			<g>
				<path fill="#45A98E" d="M1671.555,246.895c6.683-3.542,12.31-8.519,18.491-12.806c4.478-3.105,9.073-6.074,13.725-8.912
					c-2.424-0.313-4.848-0.625-7.271-0.938c5.883,6.417,11.741,12.856,17.671,19.23c4.336,4.661,9.99,12.764,16.999,7.265
					c5.229-4.103,0.932-13.903-0.306-19.144c-1.819-7.701-3.396-15.685-6.319-23.061c-0.919,2.258-1.838,4.517-2.757,6.775
					c6.052-2.952,12.118-5.874,18.181-8.803c4.896-2.366,11.666-4.334,14.273-9.446c3.816-7.483-3.791-11.844-10.031-12.08
					c-9.999-0.379-20.014-0.24-30.008-0.712c1.929,1.469,3.857,2.937,5.785,4.405c-1.161-4.949-2.296-9.904-3.373-14.872
					c-1.582-7.295-1.337-17.971-7.825-22.718c-2.833-2.073-7.013-0.445-9.334,1.53c-2.921,2.486-3.438,7.595-4.448,11.113
					c-2.365,8.246-5.238,15.791-8.49,23.714c1.929-1.469,3.857-2.937,5.786-4.405c-7.415-0.838-14.784-2.079-22.179-3.081
					c-4.865-0.659-12.895-3.016-17.533-0.298c-3.627,2.125-4.674,7.831-2.564,11.345c2.059,3.43,7.076,5.851,10.35,8.008
					c7.356,4.847,15.278,8.969,22.356,14.223c-0.718-2.736-1.435-5.473-2.152-8.209c-6.083,8.828-12.354,17.526-17.477,26.966
					c-1.967,3.625-3.53,6.508-2.897,10.625c0.706,4.589,6.117,6.172,9.914,4.891c7.291-2.462,4.163-14.054-3.189-11.572
					c-0.08,0.021-0.159,0.042-0.238,0.063c1.414,0.586,2.828,1.172,4.242,1.758c0.835,1.052,1.14,2.205,0.916,3.457
					c0.764-1.605,1.617-3.168,2.465-4.73c1.709-3.149,3.624-6.187,5.559-9.2c3.534-5.502,7.358-10.815,11.067-16.199
					c2.003-2.907,0.313-6.379-2.152-8.209c-5.075-3.768-10.674-6.866-16.036-10.199c-3.361-2.09-6.688-4.233-9.961-6.462
					c-0.768-0.527-1.529-1.063-2.285-1.605c-2.487-2.336-3.514-0.357-3.081,5.935c-1.573,0.624-0.197,0.081,0.709,0.104
					c11.417,0.297,22.834,3.111,34.168,4.393c2.836,0.32,4.848-2.119,5.786-4.405c2.397-5.842,5.17-11.342,6.787-17.485
					c0.687-2.605,1.407-5.199,2.15-7.789c0.462-1.612,0.938-3.22,1.415-4.828c-1.53,2.004-3.754,2.214-6.671,0.629
					c0.313,1.117,0.594,2.244,0.839,3.379c2.106,9.063,3.679,18.258,5.808,27.327c0.627,2.675,3.182,4.282,5.785,4.405
					c7.1,0.335,14.207,0.289,21.312,0.408c2.9,0.049,5.798,0.181,8.696,0.304c1.929,0.082,1.313,0.104,0.619-0.248
					c0.813-4.732,0.122-6.337-2.072-4.813c-0.547,0.228-1.087,0.471-1.62,0.728c-8.521,3.982-16.953,8.178-25.406,12.302
					c-2.207,1.076-3.682,4.443-2.757,6.775c3.975,10.033,5.532,20.929,8.318,31.315c1.316,4.909,3.302-3.726,6.858-1.999
					c0.535,0.26-0.916-1.173-1.438-1.724c-2.783-2.938-5.532-5.908-8.278-8.881c-4.503-4.874-8.966-9.786-13.451-14.677
					c-1.786-1.949-5.048-2.295-7.271-0.938c-4.655,2.84-9.224,5.835-13.725,8.911c-6.214,4.248-11.802,9.26-18.491,12.807
					C1658.659,240.158,1664.723,250.517,1671.555,246.895z"/>
			</g>
		</g>
		<g>
			<g>
				<g>
					<path fill="#45A98E" d="M1152.634,253.242c-3.487-8.541-7.621-16.754-10.281-25.623c-1.222-4.075-2.479-8.782-1.511-13.034
						c1.176-5.163,7.773-3.333,11.311-2.261c2.784,0.844,3.965-3.5,1.195-4.34c-4.766-1.444-10.394-2.489-14.461,1.107
						c-3.536,3.126-3.021,8.935-2.418,13.079c1.658,11.393,7.53,21.747,11.825,32.267
						C1149.376,257.087,1153.73,255.93,1152.634,253.242L1152.634,253.242z"/>
				</g>
			</g>
			<g>
				<g>
					<path fill="#45A98E" d="M1145.988,241.514c2.813-1.439,5.233-3.453,7.911-5.107c2.463-1.521,0.205-5.415-2.271-3.885
						c-2.678,1.654-5.098,3.667-7.911,5.107C1141.133,238.951,1143.41,242.833,1145.988,241.514L1145.988,241.514z"/>
				</g>
			</g>
			<g>
				<g>
					<path fill="#45A98E" d="M1157.485,233.234c1.956,6.129,4.813,11.932,8.584,17.147c1.537,2.127,4.506,0.81,4.112-1.733
						c-0.923-5.956,0.613-10.854,5.968-14.011c2.497-1.472,0.234-5.362-2.271-3.885c-7.216,4.253-9.273,11.104-8.036,19.091
						c1.371-0.577,2.742-1.155,4.112-1.733c-3.549-4.908-6.287-10.3-8.129-16.071
						C1160.946,229.285,1156.601,230.463,1157.485,233.234L1157.485,233.234z"/>
				</g>
			</g>
			<g>
				<g>
					<path fill="#45A98E" d="M1188.147,231.214c-3.692,3.105-5.04,7.885-3.038,12.324c2.018,4.477,7.275,4.771,11.175,2.928
						c4.733-2.238,8.613-7.141,6.35-12.385c-2.005-4.644-8.616-5.989-13.048-5.434c-2.84,0.356-2.874,4.86,0,4.5
						c2.92-0.366,6.078-0.039,8.329,2.041c2.898,2.677-1.17,5.693-3.298,7.056c-2.076,1.329-4.391,1.29-5.623-0.978
						c-1.354-2.493,0.482-5.313,2.335-6.871C1193.553,232.525,1190.353,229.359,1188.147,231.214L1188.147,231.214z"/>
				</g>
			</g>
			<g>
				<g>
					<path fill="#45A98E" d="M1205.192,227.44c1.944,2.927,3.29,5.888,3.76,9.382c0.352,2.612,4.326,1.82,4.42-0.598
						c0.147-3.783,0.841-7.933,3.416-10.885c3.502-4.014,5.554,5.9,5.948,7.826c0.521,2.535,4.418,1.892,4.42-0.598
						c0.002-2.412,0.196-7.612,3.575-7.969c3.381-0.355,4.441,5.379,4.69,7.596c0.32,2.85,4.824,2.881,4.5,0
						c-0.607-5.399-2.853-11.787-9.19-12.096c-6.298-0.307-8.07,7.794-8.075,12.469c1.474-0.199,2.946-0.398,4.42-0.598
						c-1.023-4.989-3.465-13.556-10.28-11.883c-6.189,1.519-7.726,11.03-7.924,16.137c1.474-0.199,2.946-0.398,4.42-0.598
						c-0.52-3.861-2.072-7.234-4.215-10.458C1207.48,222.765,1203.581,225.016,1205.192,227.44L1205.192,227.44z"/>
				</g>
			</g>
			<g>
				<g>
					<path fill="#45A98E" d="M1304.636,201.779c0.396,5.274,1.061,14.665,8.7,13.441c8.513-1.364,8.556-11.726,7.086-18.287
						c-0.635-2.832-4.973-1.631-4.34,1.195c0.882,3.936,1.795,11.326-3.313,12.651c-3.596,0.934-3.481-6.989-3.633-9.001
						C1308.92,198.904,1304.418,198.883,1304.636,201.779L1304.636,201.779z"/>
				</g>
			</g>
			<g>
				<g>
					<path fill="#45A98E" d="M1318.754,172.838c1.931,5.613,2.86,11.425,3.873,17.255c1.038,5.982,3.696,11.593,4.573,17.519
						c0.424,2.863,4.76,1.642,4.34-1.195c-0.792-5.345-3.225-10.397-4.256-15.756c-1.232-6.405-2.061-12.823-4.19-19.018
						C1322.155,168.915,1317.808,170.087,1318.754,172.838L1318.754,172.838z"/>
				</g>
			</g>
			<g>
				<g>
					<path fill="#45A98E" d="M1334.878,190.617c2.078,5.021,3.604,10.261,6.068,15.12c1.313,2.589,5.194,0.311,3.885-2.271
						c-2.285-4.509-3.686-9.384-5.613-14.046C1338.124,186.778,1333.769,187.936,1334.878,190.617L1334.878,190.617z"/>
				</g>
			</g>
			<g>
				<g>
					<path fill="#45A98E" d="M1335.978,182.991c2.902,0,2.902-4.5,0-4.5S1333.075,182.991,1335.978,182.991L1335.978,182.991z"/>
				</g>
			</g>
			<g>
				<g>
					<path fill="#45A98E" d="M1360.119,225.211c-2.975-10.139-5.811-19.835-6.647-30.4c-0.262-3.311-1.122-9.265,1.104-12.104
						c0.942-1.201,3.098,5.497,3.23,6.107c0.939,4.312-1.917,4.597-5.582,4.771c-2.889,0.137-2.902,4.638,0,4.5
						c2.825-0.134,7.984,0.132,9.479-3.051c1.264-2.689,0.832-5.628,0.218-8.444c-0.959-4.406-6.209-12.572-10.886-6.608
						c-3.918,4.998-2.25,14.121-1.56,19.866c1.102,9.176,3.708,17.714,6.303,26.561
						C1356.595,229.186,1360.938,228.003,1360.119,225.211L1360.119,225.211z"/>
				</g>
			</g>
			<g>
				<g>
					<path fill="#45A98E" d="M1370.07,192.591c1.212,0.643,2.365,1.377,3.377,2.306c0.402,0.37,0.815,0.797,0.954,1.244
						c-0.156-0.508-0.254-0.102-0.833,0.129c-1.14,0.453-1.924,1.487-1.572,2.768c0.299,1.086,1.627,2.025,2.768,1.572
						c2.828-1.123,5.224-3.519,3.567-6.705c-1.214-2.336-3.724-3.997-5.989-5.198C1369.78,187.347,1367.506,191.231,1370.07,192.591
						L1370.07,192.591z"/>
				</g>
			</g>
			<g>
				<g>
					<path fill="#45A98E" d="M1261.993,194.557c6.557-0.688,12.834-3.131,19.407-3.868c2.04-0.229,6.515-1.097,5.164,1.819
						c-1.586,3.425-4.897,6.195-7.371,8.961c-4.4,4.918-11.578,12.309-9.774,19.592c1.125,4.542,4.752,4.383,8.33,3.191
						c7.315-2.436,14.036-6.444,21.122-9.438c2.665-1.125,0.368-5-2.271-3.885c-7.289,3.078-14.178,7.029-21.705,9.535
						c-3.495,1.164,1.916-8.9,2.491-9.72c4.195-5.988,11.266-10.796,13.83-17.798c4.667-12.743-25.209-3.313-29.223-2.891
						C1259.138,190.356,1259.108,194.859,1261.993,194.557L1261.993,194.557z"/>
				</g>
			</g>
		</g>
		<g>
			<g>
				<g>
					<path fill="#45A98E" d="M1149.195,282.346c-0.081,5.474,3.279,11.851,8.892,13.346c8.337,2.222,6.431-9.926,5.218-14.045
						c-0.691-2.348-4.727-1.999-4.42,0.598c0.594,5.033,4.181,16.211,11.003,14.842c5.933-1.19,3.789-13.417,2.642-17.176
						c-0.846-2.768-5.189-1.587-4.34,1.195c1.016,3.326,1.438,7.432,0.654,10.833c-0.498,2.161-2.628-2.012-3.129-2.934
						c-1.085-1.995-2.062-4.481-2.33-6.761c-1.474,0.199-2.946,0.398-4.42,0.598c0.273,0.927,2.819,9.693-0.308,8.326
						c-3.28-1.434-5.012-5.45-4.962-8.822C1153.738,279.442,1149.238,279.446,1149.195,282.346L1149.195,282.346z"/>
				</g>
			</g>
			<g>
				<g>
					<path fill="#45A98E" d="M1178.237,281.311c1.567,3.901,2.147,8.087,3.812,11.957c1.143,2.659,5.019,0.364,3.885-2.271
						c-1.502-3.494-1.938-7.348-3.356-10.881C1181.51,277.457,1177.155,278.616,1178.237,281.311L1178.237,281.311z"/>
				</g>
			</g>
			<g>
				<g>
					<path fill="#45A98E" d="M1177.832,275.811c2.902,0,2.902-4.5,0-4.5S1174.93,275.811,1177.832,275.811L1177.832,275.811z"/>
				</g>
			</g>
			<g>
				<g>
					<path fill="#45A98E" d="M1186.301,266.848c2.922,5.979,2.562,13.072,5.795,18.995c3.131,5.734,10.102,5.736,12.557-0.267
						c1.099-2.688-3.257-3.845-4.34-1.197c-1.606,3.93-4.603-1.131-5.204-2.611c-0.755-1.857-1.194-3.854-1.654-5.799
						c-0.909-3.848-1.518-7.81-3.269-11.393C1188.912,261.969,1185.031,264.251,1186.301,266.848L1186.301,266.848z"/>
				</g>
			</g>
			<g>
				<g>
					<path fill="#45A98E" d="M1192.914,281.268c1.201-0.408,2.378-0.879,3.578-1.287c1.16-0.395,1.912-1.533,1.572-2.768
						c-0.311-1.13-1.606-1.967-2.768-1.572c-1.201,0.408-2.378,0.879-3.578,1.287c-1.16,0.395-1.912,1.532-1.572,2.768
						C1190.457,280.825,1191.753,281.662,1192.914,281.268L1192.914,281.268z"/>
				</g>
			</g>
			<g>
				<g>
					<path fill="#45A98E" d="M1198.795,262.289c1.203,8.198,4.718,15.758,7.552,23.477c0.838,2.282,4.48,2.076,4.42-0.599
						c-0.051-2.254-0.484-4.477-0.539-6.734c-0.05-2.037,1.483-4.52,3.403-1.646c0.984,1.474,1.252,3.62,1.422,5.34
						c0.282,2.86,4.785,2.888,4.5,0c-0.439-4.452-2.78-13.115-9.213-10.994c-6.311,2.082-4.187,8.988-4.073,14.034
						c1.474-0.199,2.946-0.398,4.42-0.599c-2.834-7.718-6.349-15.277-7.552-23.475
						C1202.715,258.23,1198.379,259.452,1198.795,262.289L1198.795,262.289z"/>
				</g>
			</g>
			<g>
				<g>
					<path fill="#45A98E" d="M1237.903,249.883c0.693,9.64,0.298,19.596,3.986,28.711c1.074,2.653,5.429,1.495,4.34-1.197
						c-3.545-8.758-3.16-18.251-3.826-27.514C1242.196,247.006,1237.695,246.985,1237.903,249.883L1237.903,249.883z"/>
				</g>
			</g>
			<g>
				<g>
					<path fill="#45A98E" d="M1249.976,263.79c-4.374,2.356-4.046,7.698-0.641,10.774c4.224,3.815,10.179,2.184,13.435-2.004
						c3.07-3.948,1.537-8.255-2.912-10.064c-3.779-1.537-8.537-0.301-10.174,3.582c-0.477,1.132,0.505,2.474,1.572,2.768
						c1.299,0.357,2.291-0.442,2.768-1.572c0.457-1.086,2.885-0.95,4.063-0.631c1.855,0.502,2.441,1.527,1.234,3.08
						c-1.714,2.203-4.248,3.348-6.719,1.726c-1.569-1.03-2.052-2.858-0.354-3.773C1254.802,266.299,1252.53,262.413,1249.976,263.79
						L1249.976,263.79z"/>
				</g>
			</g>
			<g>
				<g>
					<path fill="#45A98E" d="M1264.182,262.479c3.849,3.167,6.28,7.604,10.299,10.604c1.209,0.903,2.921-0.078,3.306-1.345
						c1.524-5.019,2.697-10.133,4.485-15.07c0.99-2.734-3.359-3.902-4.34-1.195c-1.788,4.937-2.96,10.051-4.485,15.07
						c1.103-0.449,2.204-0.896,3.306-1.345c-3.672-2.741-5.85-6.989-9.389-9.9C1265.142,257.47,1261.938,260.635,1264.182,262.479
						L1264.182,262.479z"/>
				</g>
			</g>
			<g>
				<g>
					<path fill="#45A98E" d="M1289.43,262.898c5.042-1.226,10.534-5.716,9.145-11.365c-1.396-5.678-9.393-3.267-11.978-0.115
						c-3.781,4.608-1.146,11.109,2.796,14.553c4.142,3.619,10.486,5.108,15.392,2.209c2.495-1.475,0.232-5.365-2.271-3.885
						c-4.799,2.835-12.563-1.269-13.185-6.784c-0.29-2.564,1.762-5.354,4.589-4.897c1.658,0.268-0.676,3.034-1.052,3.411
						c-1.23,1.236-2.949,2.126-4.631,2.534C1285.415,259.244,1286.611,263.583,1289.43,262.898L1289.43,262.898z"/>
				</g>
			</g>
			<g>
				<g>
					<path fill="#45A98E" d="M1227.124,321.835c46.174-30.792,105.643-34.173,159.134-40.518c-0.379-1.397-0.757-2.795-1.136-4.192
						c-15.266,9.01-33.181,12.397-50.029,17.247c-15.422,4.438-31.705,10.127-42.592,22.529c-0.918,1.046-0.894,2.814,0.455,3.533
						c9.038,4.818,19.633,1.946,29.363,2.077c2.903,0.039,2.899-4.461,0-4.5c-8.694-0.117-19.037,2.831-27.092-1.462
						c0.151,1.178,0.304,2.355,0.455,3.533c11.341-12.918,28.618-18.021,44.619-22.512c15.965-4.481,32.661-8.044,47.092-16.562
						c1.791-1.057,1.189-4.468-1.136-4.192c-54.287,6.438-114.545,9.882-161.405,41.133
						C1222.451,319.551,1224.702,323.45,1227.124,321.835L1227.124,321.835z"/>
				</g>
			</g>
		</g>
	</g>
</g>
</svg>
